<?xml version="1.0" encoding="utf-8" standalone="no"?>
<!DOCTYPE svg PUBLIC "-//W3C//DTD SVG 1.1//EN"
  "http://www.w3.org/Graphics/SVG/1.1/DTD/svg11.dtd">
<svg xmlns:xlink="http://www.w3.org/1999/xlink" width="864pt" height="504pt" viewBox="0 0 864 504" xmlns="http://www.w3.org/2000/svg" version="1.1">
 <metadata>
  <rdf:RDF xmlns:dc="http://purl.org/dc/elements/1.1/" xmlns:cc="http://creativecommons.org/ns#" xmlns:rdf="http://www.w3.org/1999/02/22-rdf-syntax-ns#">
   <cc:Work>
    <dc:type rdf:resource="http://purl.org/dc/dcmitype/StillImage"/>
    <dc:date>2024-03-06T23:00:27.021364</dc:date>
    <dc:format>image/svg+xml</dc:format>
    <dc:creator>
     <cc:Agent>
      <dc:title>Matplotlib v3.8.3, https://matplotlib.org/</dc:title>
     </cc:Agent>
    </dc:creator>
   </cc:Work>
  </rdf:RDF>
 </metadata>
 <defs>
  <style type="text/css">*{stroke-linejoin: round; stroke-linecap: butt}</style>
 </defs>
 <g id="figure_1">
  <g id="patch_1">
   <path d="M 0 504 
L 864 504 
L 864 0 
L 0 0 
z
" style="fill: #ffffff"/>
  </g>
  <g id="axes_1">
   <g id="patch_2">
    <path d="M 108 448.56 
L 777.6 448.56 
L 777.6 60.48 
L 108 60.48 
z
" style="fill: #ffffff"/>
   </g>
   <g id="matplotlib.axis_1">
    <g id="xtick_1">
     <g id="line2d_1">
      <path d="M 138.436364 448.56 
L 138.436364 60.48 
" clip-path="url(#p654df26522)" style="fill: none; stroke: #cccccc; stroke-width: 0.8; stroke-linecap: round"/>
     </g>
     <g id="text_1">
      <!-- 2010 -->
      <g style="fill: #262626" transform="translate(120.621364 466.197812) scale(0.14 -0.14)">
       <defs>
        <path id="DejaVuSans-32" d="M 1228 531 
L 3431 531 
L 3431 0 
L 469 0 
L 469 531 
Q 828 903 1448 1529 
Q 2069 2156 2228 2338 
Q 2531 2678 2651 2914 
Q 2772 3150 2772 3378 
Q 2772 3750 2511 3984 
Q 2250 4219 1831 4219 
Q 1534 4219 1204 4116 
Q 875 4013 500 3803 
L 500 4441 
Q 881 4594 1212 4672 
Q 1544 4750 1819 4750 
Q 2544 4750 2975 4387 
Q 3406 4025 3406 3419 
Q 3406 3131 3298 2873 
Q 3191 2616 2906 2266 
Q 2828 2175 2409 1742 
Q 1991 1309 1228 531 
z
" transform="scale(0.015625)"/>
        <path id="DejaVuSans-30" d="M 2034 4250 
Q 1547 4250 1301 3770 
Q 1056 3291 1056 2328 
Q 1056 1369 1301 889 
Q 1547 409 2034 409 
Q 2525 409 2770 889 
Q 3016 1369 3016 2328 
Q 3016 3291 2770 3770 
Q 2525 4250 2034 4250 
z
M 2034 4750 
Q 2819 4750 3233 4129 
Q 3647 3509 3647 2328 
Q 3647 1150 3233 529 
Q 2819 -91 2034 -91 
Q 1250 -91 836 529 
Q 422 1150 422 2328 
Q 422 3509 836 4129 
Q 1250 4750 2034 4750 
z
" transform="scale(0.015625)"/>
        <path id="DejaVuSans-31" d="M 794 531 
L 1825 531 
L 1825 4091 
L 703 3866 
L 703 4441 
L 1819 4666 
L 2450 4666 
L 2450 531 
L 3481 531 
L 3481 0 
L 794 0 
L 794 531 
z
" transform="scale(0.015625)"/>
       </defs>
       <use xlink:href="#DejaVuSans-32"/>
       <use xlink:href="#DejaVuSans-30" x="63.623047"/>
       <use xlink:href="#DejaVuSans-31" x="127.246094"/>
       <use xlink:href="#DejaVuSans-30" x="190.869141"/>
      </g>
     </g>
    </g>
    <g id="xtick_2">
     <g id="line2d_2">
      <path d="M 233.876851 448.56 
L 233.876851 60.48 
" clip-path="url(#p654df26522)" style="fill: none; stroke: #cccccc; stroke-width: 0.8; stroke-linecap: round"/>
     </g>
     <g id="text_2">
      <!-- 2012 -->
      <g style="fill: #262626" transform="translate(216.061851 466.197812) scale(0.14 -0.14)">
       <use xlink:href="#DejaVuSans-32"/>
       <use xlink:href="#DejaVuSans-30" x="63.623047"/>
       <use xlink:href="#DejaVuSans-31" x="127.246094"/>
       <use xlink:href="#DejaVuSans-32" x="190.869141"/>
      </g>
     </g>
    </g>
    <g id="xtick_3">
     <g id="line2d_3">
      <path d="M 329.448079 448.56 
L 329.448079 60.48 
" clip-path="url(#p654df26522)" style="fill: none; stroke: #cccccc; stroke-width: 0.8; stroke-linecap: round"/>
     </g>
     <g id="text_3">
      <!-- 2014 -->
      <g style="fill: #262626" transform="translate(311.633079 466.197812) scale(0.14 -0.14)">
       <defs>
        <path id="DejaVuSans-34" d="M 2419 4116 
L 825 1625 
L 2419 1625 
L 2419 4116 
z
M 2253 4666 
L 3047 4666 
L 3047 1625 
L 3713 1625 
L 3713 1100 
L 3047 1100 
L 3047 0 
L 2419 0 
L 2419 1100 
L 313 1100 
L 313 1709 
L 2253 4666 
z
" transform="scale(0.015625)"/>
       </defs>
       <use xlink:href="#DejaVuSans-32"/>
       <use xlink:href="#DejaVuSans-30" x="63.623047"/>
       <use xlink:href="#DejaVuSans-31" x="127.246094"/>
       <use xlink:href="#DejaVuSans-34" x="190.869141"/>
      </g>
     </g>
    </g>
    <g id="xtick_4">
     <g id="line2d_4">
      <path d="M 424.888566 448.56 
L 424.888566 60.48 
" clip-path="url(#p654df26522)" style="fill: none; stroke: #cccccc; stroke-width: 0.8; stroke-linecap: round"/>
     </g>
     <g id="text_4">
      <!-- 2016 -->
      <g style="fill: #262626" transform="translate(407.073566 466.197812) scale(0.14 -0.14)">
       <defs>
        <path id="DejaVuSans-36" d="M 2113 2584 
Q 1688 2584 1439 2293 
Q 1191 2003 1191 1497 
Q 1191 994 1439 701 
Q 1688 409 2113 409 
Q 2538 409 2786 701 
Q 3034 994 3034 1497 
Q 3034 2003 2786 2293 
Q 2538 2584 2113 2584 
z
M 3366 4563 
L 3366 3988 
Q 3128 4100 2886 4159 
Q 2644 4219 2406 4219 
Q 1781 4219 1451 3797 
Q 1122 3375 1075 2522 
Q 1259 2794 1537 2939 
Q 1816 3084 2150 3084 
Q 2853 3084 3261 2657 
Q 3669 2231 3669 1497 
Q 3669 778 3244 343 
Q 2819 -91 2113 -91 
Q 1303 -91 875 529 
Q 447 1150 447 2328 
Q 447 3434 972 4092 
Q 1497 4750 2381 4750 
Q 2619 4750 2861 4703 
Q 3103 4656 3366 4563 
z
" transform="scale(0.015625)"/>
       </defs>
       <use xlink:href="#DejaVuSans-32"/>
       <use xlink:href="#DejaVuSans-30" x="63.623047"/>
       <use xlink:href="#DejaVuSans-31" x="127.246094"/>
       <use xlink:href="#DejaVuSans-36" x="190.869141"/>
      </g>
     </g>
    </g>
    <g id="xtick_5">
     <g id="line2d_5">
      <path d="M 520.459794 448.56 
L 520.459794 60.48 
" clip-path="url(#p654df26522)" style="fill: none; stroke: #cccccc; stroke-width: 0.8; stroke-linecap: round"/>
     </g>
     <g id="text_5">
      <!-- 2018 -->
      <g style="fill: #262626" transform="translate(502.644794 466.197812) scale(0.14 -0.14)">
       <defs>
        <path id="DejaVuSans-38" d="M 2034 2216 
Q 1584 2216 1326 1975 
Q 1069 1734 1069 1313 
Q 1069 891 1326 650 
Q 1584 409 2034 409 
Q 2484 409 2743 651 
Q 3003 894 3003 1313 
Q 3003 1734 2745 1975 
Q 2488 2216 2034 2216 
z
M 1403 2484 
Q 997 2584 770 2862 
Q 544 3141 544 3541 
Q 544 4100 942 4425 
Q 1341 4750 2034 4750 
Q 2731 4750 3128 4425 
Q 3525 4100 3525 3541 
Q 3525 3141 3298 2862 
Q 3072 2584 2669 2484 
Q 3125 2378 3379 2068 
Q 3634 1759 3634 1313 
Q 3634 634 3220 271 
Q 2806 -91 2034 -91 
Q 1263 -91 848 271 
Q 434 634 434 1313 
Q 434 1759 690 2068 
Q 947 2378 1403 2484 
z
M 1172 3481 
Q 1172 3119 1398 2916 
Q 1625 2713 2034 2713 
Q 2441 2713 2670 2916 
Q 2900 3119 2900 3481 
Q 2900 3844 2670 4047 
Q 2441 4250 2034 4250 
Q 1625 4250 1398 4047 
Q 1172 3844 1172 3481 
z
" transform="scale(0.015625)"/>
       </defs>
       <use xlink:href="#DejaVuSans-32"/>
       <use xlink:href="#DejaVuSans-30" x="63.623047"/>
       <use xlink:href="#DejaVuSans-31" x="127.246094"/>
       <use xlink:href="#DejaVuSans-38" x="190.869141"/>
      </g>
     </g>
    </g>
    <g id="xtick_6">
     <g id="line2d_6">
      <path d="M 615.900281 448.56 
L 615.900281 60.48 
" clip-path="url(#p654df26522)" style="fill: none; stroke: #cccccc; stroke-width: 0.8; stroke-linecap: round"/>
     </g>
     <g id="text_6">
      <!-- 2020 -->
      <g style="fill: #262626" transform="translate(598.085281 466.197812) scale(0.14 -0.14)">
       <use xlink:href="#DejaVuSans-32"/>
       <use xlink:href="#DejaVuSans-30" x="63.623047"/>
       <use xlink:href="#DejaVuSans-32" x="127.246094"/>
       <use xlink:href="#DejaVuSans-30" x="190.869141"/>
      </g>
     </g>
    </g>
    <g id="xtick_7">
     <g id="line2d_7">
      <path d="M 711.471509 448.56 
L 711.471509 60.48 
" clip-path="url(#p654df26522)" style="fill: none; stroke: #cccccc; stroke-width: 0.8; stroke-linecap: round"/>
     </g>
     <g id="text_7">
      <!-- 2022 -->
      <g style="fill: #262626" transform="translate(693.656509 466.197812) scale(0.14 -0.14)">
       <use xlink:href="#DejaVuSans-32"/>
       <use xlink:href="#DejaVuSans-30" x="63.623047"/>
       <use xlink:href="#DejaVuSans-32" x="127.246094"/>
       <use xlink:href="#DejaVuSans-32" x="190.869141"/>
      </g>
     </g>
    </g>
    <g id="text_8">
     <!-- Year -->
     <g style="fill: #262626" transform="translate(422.9675 491.266875) scale(0.16 -0.16)">
      <defs>
       <path id="DejaVuSans-Bold-59" d="M -63 4666 
L 1253 4666 
L 2316 3003 
L 3378 4666 
L 4697 4666 
L 2919 1966 
L 2919 0 
L 1716 0 
L 1716 1966 
L -63 4666 
z
" transform="scale(0.015625)"/>
       <path id="DejaVuSans-Bold-65" d="M 4031 1759 
L 4031 1441 
L 1416 1441 
Q 1456 1047 1700 850 
Q 1944 653 2381 653 
Q 2734 653 3104 758 
Q 3475 863 3866 1075 
L 3866 213 
Q 3469 63 3072 -14 
Q 2675 -91 2278 -91 
Q 1328 -91 801 392 
Q 275 875 275 1747 
Q 275 2603 792 3093 
Q 1309 3584 2216 3584 
Q 3041 3584 3536 3087 
Q 4031 2591 4031 1759 
z
M 2881 2131 
Q 2881 2450 2695 2645 
Q 2509 2841 2209 2841 
Q 1884 2841 1681 2658 
Q 1478 2475 1428 2131 
L 2881 2131 
z
" transform="scale(0.015625)"/>
       <path id="DejaVuSans-Bold-61" d="M 2106 1575 
Q 1756 1575 1579 1456 
Q 1403 1338 1403 1106 
Q 1403 894 1545 773 
Q 1688 653 1941 653 
Q 2256 653 2472 879 
Q 2688 1106 2688 1447 
L 2688 1575 
L 2106 1575 
z
M 3816 1997 
L 3816 0 
L 2688 0 
L 2688 519 
Q 2463 200 2181 54 
Q 1900 -91 1497 -91 
Q 953 -91 614 226 
Q 275 544 275 1050 
Q 275 1666 698 1953 
Q 1122 2241 2028 2241 
L 2688 2241 
L 2688 2328 
Q 2688 2594 2478 2717 
Q 2269 2841 1825 2841 
Q 1466 2841 1156 2769 
Q 847 2697 581 2553 
L 581 3406 
Q 941 3494 1303 3539 
Q 1666 3584 2028 3584 
Q 2975 3584 3395 3211 
Q 3816 2838 3816 1997 
z
" transform="scale(0.015625)"/>
       <path id="DejaVuSans-Bold-72" d="M 3138 2547 
Q 2991 2616 2845 2648 
Q 2700 2681 2553 2681 
Q 2122 2681 1889 2404 
Q 1656 2128 1656 1613 
L 1656 0 
L 538 0 
L 538 3500 
L 1656 3500 
L 1656 2925 
Q 1872 3269 2151 3426 
Q 2431 3584 2822 3584 
Q 2878 3584 2943 3579 
Q 3009 3575 3134 3559 
L 3138 2547 
z
" transform="scale(0.015625)"/>
      </defs>
      <use xlink:href="#DejaVuSans-Bold-59"/>
      <use xlink:href="#DejaVuSans-Bold-65" x="63.287109"/>
      <use xlink:href="#DejaVuSans-Bold-61" x="131.109375"/>
      <use xlink:href="#DejaVuSans-Bold-72" x="198.589844"/>
     </g>
    </g>
   </g>
   <g id="matplotlib.axis_2">
    <g id="ytick_1">
     <g id="line2d_8">
      <path d="M 108 448.56 
L 777.6 448.56 
" clip-path="url(#p654df26522)" style="fill: none; stroke: #cccccc; stroke-width: 0.8; stroke-linecap: round"/>
     </g>
     <g id="text_9">
      <!-- 0 -->
      <g style="fill: #262626" transform="translate(92.0925 453.878906) scale(0.14 -0.14)">
       <use xlink:href="#DejaVuSans-30"/>
      </g>
     </g>
    </g>
    <g id="ytick_2">
     <g id="line2d_9">
      <path d="M 108 400.05 
L 777.6 400.05 
" clip-path="url(#p654df26522)" style="fill: none; stroke: #cccccc; stroke-width: 0.8; stroke-linecap: round"/>
     </g>
     <g id="text_10">
      <!-- 2500 -->
      <g style="fill: #262626" transform="translate(65.37 405.368906) scale(0.14 -0.14)">
       <defs>
        <path id="DejaVuSans-35" d="M 691 4666 
L 3169 4666 
L 3169 4134 
L 1269 4134 
L 1269 2991 
Q 1406 3038 1543 3061 
Q 1681 3084 1819 3084 
Q 2600 3084 3056 2656 
Q 3513 2228 3513 1497 
Q 3513 744 3044 326 
Q 2575 -91 1722 -91 
Q 1428 -91 1123 -41 
Q 819 9 494 109 
L 494 744 
Q 775 591 1075 516 
Q 1375 441 1709 441 
Q 2250 441 2565 725 
Q 2881 1009 2881 1497 
Q 2881 1984 2565 2268 
Q 2250 2553 1709 2553 
Q 1456 2553 1204 2497 
Q 953 2441 691 2322 
L 691 4666 
z
" transform="scale(0.015625)"/>
       </defs>
       <use xlink:href="#DejaVuSans-32"/>
       <use xlink:href="#DejaVuSans-35" x="63.623047"/>
       <use xlink:href="#DejaVuSans-30" x="127.246094"/>
       <use xlink:href="#DejaVuSans-30" x="190.869141"/>
      </g>
     </g>
    </g>
    <g id="ytick_3">
     <g id="line2d_10">
      <path d="M 108 351.54 
L 777.6 351.54 
" clip-path="url(#p654df26522)" style="fill: none; stroke: #cccccc; stroke-width: 0.8; stroke-linecap: round"/>
     </g>
     <g id="text_11">
      <!-- 5000 -->
      <g style="fill: #262626" transform="translate(65.37 356.858906) scale(0.14 -0.14)">
       <use xlink:href="#DejaVuSans-35"/>
       <use xlink:href="#DejaVuSans-30" x="63.623047"/>
       <use xlink:href="#DejaVuSans-30" x="127.246094"/>
       <use xlink:href="#DejaVuSans-30" x="190.869141"/>
      </g>
     </g>
    </g>
    <g id="ytick_4">
     <g id="line2d_11">
      <path d="M 108 303.03 
L 777.6 303.03 
" clip-path="url(#p654df26522)" style="fill: none; stroke: #cccccc; stroke-width: 0.8; stroke-linecap: round"/>
     </g>
     <g id="text_12">
      <!-- 7500 -->
      <g style="fill: #262626" transform="translate(65.37 308.348906) scale(0.14 -0.14)">
       <defs>
        <path id="DejaVuSans-37" d="M 525 4666 
L 3525 4666 
L 3525 4397 
L 1831 0 
L 1172 0 
L 2766 4134 
L 525 4134 
L 525 4666 
z
" transform="scale(0.015625)"/>
       </defs>
       <use xlink:href="#DejaVuSans-37"/>
       <use xlink:href="#DejaVuSans-35" x="63.623047"/>
       <use xlink:href="#DejaVuSans-30" x="127.246094"/>
       <use xlink:href="#DejaVuSans-30" x="190.869141"/>
      </g>
     </g>
    </g>
    <g id="ytick_5">
     <g id="line2d_12">
      <path d="M 108 254.52 
L 777.6 254.52 
" clip-path="url(#p654df26522)" style="fill: none; stroke: #cccccc; stroke-width: 0.8; stroke-linecap: round"/>
     </g>
     <g id="text_13">
      <!-- 10000 -->
      <g style="fill: #262626" transform="translate(56.4625 259.838906) scale(0.14 -0.14)">
       <use xlink:href="#DejaVuSans-31"/>
       <use xlink:href="#DejaVuSans-30" x="63.623047"/>
       <use xlink:href="#DejaVuSans-30" x="127.246094"/>
       <use xlink:href="#DejaVuSans-30" x="190.869141"/>
       <use xlink:href="#DejaVuSans-30" x="254.492188"/>
      </g>
     </g>
    </g>
    <g id="ytick_6">
     <g id="line2d_13">
      <path d="M 108 206.01 
L 777.6 206.01 
" clip-path="url(#p654df26522)" style="fill: none; stroke: #cccccc; stroke-width: 0.8; stroke-linecap: round"/>
     </g>
     <g id="text_14">
      <!-- 12500 -->
      <g style="fill: #262626" transform="translate(56.4625 211.328906) scale(0.14 -0.14)">
       <use xlink:href="#DejaVuSans-31"/>
       <use xlink:href="#DejaVuSans-32" x="63.623047"/>
       <use xlink:href="#DejaVuSans-35" x="127.246094"/>
       <use xlink:href="#DejaVuSans-30" x="190.869141"/>
       <use xlink:href="#DejaVuSans-30" x="254.492188"/>
      </g>
     </g>
    </g>
    <g id="ytick_7">
     <g id="line2d_14">
      <path d="M 108 157.5 
L 777.6 157.5 
" clip-path="url(#p654df26522)" style="fill: none; stroke: #cccccc; stroke-width: 0.8; stroke-linecap: round"/>
     </g>
     <g id="text_15">
      <!-- 15000 -->
      <g style="fill: #262626" transform="translate(56.4625 162.818906) scale(0.14 -0.14)">
       <use xlink:href="#DejaVuSans-31"/>
       <use xlink:href="#DejaVuSans-35" x="63.623047"/>
       <use xlink:href="#DejaVuSans-30" x="127.246094"/>
       <use xlink:href="#DejaVuSans-30" x="190.869141"/>
       <use xlink:href="#DejaVuSans-30" x="254.492188"/>
      </g>
     </g>
    </g>
    <g id="ytick_8">
     <g id="line2d_15">
      <path d="M 108 108.99 
L 777.6 108.99 
" clip-path="url(#p654df26522)" style="fill: none; stroke: #cccccc; stroke-width: 0.8; stroke-linecap: round"/>
     </g>
     <g id="text_16">
      <!-- 17500 -->
      <g style="fill: #262626" transform="translate(56.4625 114.308906) scale(0.14 -0.14)">
       <use xlink:href="#DejaVuSans-31"/>
       <use xlink:href="#DejaVuSans-37" x="63.623047"/>
       <use xlink:href="#DejaVuSans-35" x="127.246094"/>
       <use xlink:href="#DejaVuSans-30" x="190.869141"/>
       <use xlink:href="#DejaVuSans-30" x="254.492188"/>
      </g>
     </g>
    </g>
    <g id="ytick_9">
     <g id="line2d_16">
      <path d="M 108 60.48 
L 777.6 60.48 
" clip-path="url(#p654df26522)" style="fill: none; stroke: #cccccc; stroke-width: 0.8; stroke-linecap: round"/>
     </g>
     <g id="text_17">
      <!-- 20000 -->
      <g style="fill: #262626" transform="translate(56.4625 65.798906) scale(0.14 -0.14)">
       <use xlink:href="#DejaVuSans-32"/>
       <use xlink:href="#DejaVuSans-30" x="63.623047"/>
       <use xlink:href="#DejaVuSans-30" x="127.246094"/>
       <use xlink:href="#DejaVuSans-30" x="190.869141"/>
       <use xlink:href="#DejaVuSans-30" x="254.492188"/>
      </g>
     </g>
    </g>
    <g id="text_18">
     <!-- Million Metric Tons of CO2 -->
     <g style="fill: #262626" transform="translate(43.135 371.98875) rotate(-90) scale(0.16 -0.16)">
      <defs>
       <path id="DejaVuSans-Bold-4d" d="M 588 4666 
L 2119 4666 
L 3181 2169 
L 4250 4666 
L 5778 4666 
L 5778 0 
L 4641 0 
L 4641 3413 
L 3566 897 
L 2803 897 
L 1728 3413 
L 1728 0 
L 588 0 
L 588 4666 
z
" transform="scale(0.015625)"/>
       <path id="DejaVuSans-Bold-69" d="M 538 3500 
L 1656 3500 
L 1656 0 
L 538 0 
L 538 3500 
z
M 538 4863 
L 1656 4863 
L 1656 3950 
L 538 3950 
L 538 4863 
z
" transform="scale(0.015625)"/>
       <path id="DejaVuSans-Bold-6c" d="M 538 4863 
L 1656 4863 
L 1656 0 
L 538 0 
L 538 4863 
z
" transform="scale(0.015625)"/>
       <path id="DejaVuSans-Bold-6f" d="M 2203 2784 
Q 1831 2784 1636 2517 
Q 1441 2250 1441 1747 
Q 1441 1244 1636 976 
Q 1831 709 2203 709 
Q 2569 709 2762 976 
Q 2956 1244 2956 1747 
Q 2956 2250 2762 2517 
Q 2569 2784 2203 2784 
z
M 2203 3584 
Q 3106 3584 3614 3096 
Q 4122 2609 4122 1747 
Q 4122 884 3614 396 
Q 3106 -91 2203 -91 
Q 1297 -91 786 396 
Q 275 884 275 1747 
Q 275 2609 786 3096 
Q 1297 3584 2203 3584 
z
" transform="scale(0.015625)"/>
       <path id="DejaVuSans-Bold-6e" d="M 4056 2131 
L 4056 0 
L 2931 0 
L 2931 347 
L 2931 1631 
Q 2931 2084 2911 2256 
Q 2891 2428 2841 2509 
Q 2775 2619 2662 2680 
Q 2550 2741 2406 2741 
Q 2056 2741 1856 2470 
Q 1656 2200 1656 1722 
L 1656 0 
L 538 0 
L 538 3500 
L 1656 3500 
L 1656 2988 
Q 1909 3294 2193 3439 
Q 2478 3584 2822 3584 
Q 3428 3584 3742 3212 
Q 4056 2841 4056 2131 
z
" transform="scale(0.015625)"/>
       <path id="DejaVuSans-Bold-20" transform="scale(0.015625)"/>
       <path id="DejaVuSans-Bold-74" d="M 1759 4494 
L 1759 3500 
L 2913 3500 
L 2913 2700 
L 1759 2700 
L 1759 1216 
Q 1759 972 1856 886 
Q 1953 800 2241 800 
L 2816 800 
L 2816 0 
L 1856 0 
Q 1194 0 917 276 
Q 641 553 641 1216 
L 641 2700 
L 84 2700 
L 84 3500 
L 641 3500 
L 641 4494 
L 1759 4494 
z
" transform="scale(0.015625)"/>
       <path id="DejaVuSans-Bold-63" d="M 3366 3391 
L 3366 2478 
Q 3138 2634 2908 2709 
Q 2678 2784 2431 2784 
Q 1963 2784 1702 2511 
Q 1441 2238 1441 1747 
Q 1441 1256 1702 982 
Q 1963 709 2431 709 
Q 2694 709 2930 787 
Q 3166 866 3366 1019 
L 3366 103 
Q 3103 6 2833 -42 
Q 2563 -91 2291 -91 
Q 1344 -91 809 395 
Q 275 881 275 1747 
Q 275 2613 809 3098 
Q 1344 3584 2291 3584 
Q 2566 3584 2833 3536 
Q 3100 3488 3366 3391 
z
" transform="scale(0.015625)"/>
       <path id="DejaVuSans-Bold-54" d="M 31 4666 
L 4331 4666 
L 4331 3756 
L 2784 3756 
L 2784 0 
L 1581 0 
L 1581 3756 
L 31 3756 
L 31 4666 
z
" transform="scale(0.015625)"/>
       <path id="DejaVuSans-Bold-73" d="M 3272 3391 
L 3272 2541 
Q 2913 2691 2578 2766 
Q 2244 2841 1947 2841 
Q 1628 2841 1473 2761 
Q 1319 2681 1319 2516 
Q 1319 2381 1436 2309 
Q 1553 2238 1856 2203 
L 2053 2175 
Q 2913 2066 3209 1816 
Q 3506 1566 3506 1031 
Q 3506 472 3093 190 
Q 2681 -91 1863 -91 
Q 1516 -91 1145 -36 
Q 775 19 384 128 
L 384 978 
Q 719 816 1070 734 
Q 1422 653 1784 653 
Q 2113 653 2278 743 
Q 2444 834 2444 1013 
Q 2444 1163 2330 1236 
Q 2216 1309 1875 1350 
L 1678 1375 
Q 931 1469 631 1722 
Q 331 1975 331 2491 
Q 331 3047 712 3315 
Q 1094 3584 1881 3584 
Q 2191 3584 2531 3537 
Q 2872 3491 3272 3391 
z
" transform="scale(0.015625)"/>
       <path id="DejaVuSans-Bold-66" d="M 2841 4863 
L 2841 4128 
L 2222 4128 
Q 1984 4128 1890 4042 
Q 1797 3956 1797 3744 
L 1797 3500 
L 2753 3500 
L 2753 2700 
L 1797 2700 
L 1797 0 
L 678 0 
L 678 2700 
L 122 2700 
L 122 3500 
L 678 3500 
L 678 3744 
Q 678 4316 997 4589 
Q 1316 4863 1984 4863 
L 2841 4863 
z
" transform="scale(0.015625)"/>
       <path id="DejaVuSans-Bold-43" d="M 4288 256 
Q 3956 84 3597 -3 
Q 3238 -91 2847 -91 
Q 1681 -91 1000 561 
Q 319 1213 319 2328 
Q 319 3447 1000 4098 
Q 1681 4750 2847 4750 
Q 3238 4750 3597 4662 
Q 3956 4575 4288 4403 
L 4288 3438 
Q 3953 3666 3628 3772 
Q 3303 3878 2944 3878 
Q 2300 3878 1931 3465 
Q 1563 3053 1563 2328 
Q 1563 1606 1931 1193 
Q 2300 781 2944 781 
Q 3303 781 3628 887 
Q 3953 994 4288 1222 
L 4288 256 
z
" transform="scale(0.015625)"/>
       <path id="DejaVuSans-Bold-4f" d="M 2719 3878 
Q 2169 3878 1866 3472 
Q 1563 3066 1563 2328 
Q 1563 1594 1866 1187 
Q 2169 781 2719 781 
Q 3272 781 3575 1187 
Q 3878 1594 3878 2328 
Q 3878 3066 3575 3472 
Q 3272 3878 2719 3878 
z
M 2719 4750 
Q 3844 4750 4481 4106 
Q 5119 3463 5119 2328 
Q 5119 1197 4481 553 
Q 3844 -91 2719 -91 
Q 1597 -91 958 553 
Q 319 1197 319 2328 
Q 319 3463 958 4106 
Q 1597 4750 2719 4750 
z
" transform="scale(0.015625)"/>
       <path id="DejaVuSans-Bold-32" d="M 1844 884 
L 3897 884 
L 3897 0 
L 506 0 
L 506 884 
L 2209 2388 
Q 2438 2594 2547 2791 
Q 2656 2988 2656 3200 
Q 2656 3528 2436 3728 
Q 2216 3928 1850 3928 
Q 1569 3928 1234 3808 
Q 900 3688 519 3450 
L 519 4475 
Q 925 4609 1322 4679 
Q 1719 4750 2100 4750 
Q 2938 4750 3402 4381 
Q 3866 4013 3866 3353 
Q 3866 2972 3669 2642 
Q 3472 2313 2841 1759 
L 1844 884 
z
" transform="scale(0.015625)"/>
      </defs>
      <use xlink:href="#DejaVuSans-Bold-4d"/>
      <use xlink:href="#DejaVuSans-Bold-69" x="99.511719"/>
      <use xlink:href="#DejaVuSans-Bold-6c" x="133.789062"/>
      <use xlink:href="#DejaVuSans-Bold-6c" x="168.066406"/>
      <use xlink:href="#DejaVuSans-Bold-69" x="202.34375"/>
      <use xlink:href="#DejaVuSans-Bold-6f" x="236.621094"/>
      <use xlink:href="#DejaVuSans-Bold-6e" x="305.322266"/>
      <use xlink:href="#DejaVuSans-Bold-20" x="376.513672"/>
      <use xlink:href="#DejaVuSans-Bold-4d" x="411.328125"/>
      <use xlink:href="#DejaVuSans-Bold-65" x="510.839844"/>
      <use xlink:href="#DejaVuSans-Bold-74" x="578.662109"/>
      <use xlink:href="#DejaVuSans-Bold-72" x="626.464844"/>
      <use xlink:href="#DejaVuSans-Bold-69" x="675.78125"/>
      <use xlink:href="#DejaVuSans-Bold-63" x="710.058594"/>
      <use xlink:href="#DejaVuSans-Bold-20" x="769.335938"/>
      <use xlink:href="#DejaVuSans-Bold-54" x="804.150391"/>
      <use xlink:href="#DejaVuSans-Bold-6f" x="859.113281"/>
      <use xlink:href="#DejaVuSans-Bold-6e" x="927.814453"/>
      <use xlink:href="#DejaVuSans-Bold-73" x="999.005859"/>
      <use xlink:href="#DejaVuSans-Bold-20" x="1058.527344"/>
      <use xlink:href="#DejaVuSans-Bold-6f" x="1093.341797"/>
      <use xlink:href="#DejaVuSans-Bold-66" x="1162.042969"/>
      <use xlink:href="#DejaVuSans-Bold-20" x="1205.548828"/>
      <use xlink:href="#DejaVuSans-Bold-43" x="1240.363281"/>
      <use xlink:href="#DejaVuSans-Bold-4f" x="1313.751953"/>
      <use xlink:href="#DejaVuSans-Bold-32" x="1398.761719"/>
     </g>
    </g>
   </g>
   <g id="PolyCollection_1">
    <defs>
     <path id="mbbed922ecf" d="M 138.436364 -290.387109 
L 138.436364 -104.31198 
L 150.202999 -100.584604 
L 162.100375 -102.574427 
L 174.128491 -103.068096 
L 186.156607 -103.794637 
L 197.923243 -100.000343 
L 209.820619 -102.008067 
L 221.848735 -101.465606 
L 233.876851 -101.405445 
L 245.774227 -98.950743 
L 257.671603 -101.193455 
L 269.699719 -101.0806 
L 281.727835 -103.357233 
L 293.49447 -99.635273 
L 305.391846 -101.257977 
L 317.419963 -102.071102 
L 329.448079 -104.680417 
L 341.214714 -99.633868 
L 353.11209 -101.132403 
L 365.140206 -101.988694 
L 377.168322 -103.895394 
L 388.934958 -99.166111 
L 400.832334 -101.028173 
L 412.86045 -100.482159 
L 424.888566 -101.191469 
L 436.785942 -98.159808 
L 448.683318 -100.990099 
L 460.711434 -100.822572 
L 472.73955 -100.953143 
L 484.506186 -98.325733 
L 496.403561 -100.172101 
L 508.431678 -101.135012 
L 520.459794 -102.535435 
L 532.226429 -98.987317 
L 544.123805 -100.827558 
L 556.151921 -102.208901 
L 568.180037 -102.940715 
L 579.946673 -98.284528 
L 591.844049 -100.199429 
L 603.872165 -100.78525 
L 615.900281 -99.879022 
L 627.797657 -93.715402 
L 639.695033 -97.473467 
L 651.723149 -97.947868 
L 663.751265 -100.237777 
L 675.517901 -97.015983 
L 687.415276 -98.922113 
L 699.443393 -99.002272 
L 711.471509 -101.257833 
L 723.238144 -97.402483 
L 735.13552 -98.967989 
L 747.163636 -99.74031 
L 747.163636 -312.095503 
L 747.163636 -312.095503 
L 735.13552 -295.850925 
L 723.238144 -295.530303 
L 711.471509 -326.51835 
L 699.443393 -313.796426 
L 687.415276 -291.877384 
L 675.517901 -291.867046 
L 663.751265 -319.280207 
L 651.723149 -308.330664 
L 639.695033 -286.861867 
L 627.797657 -270.039337 
L 615.900281 -308.024069 
L 603.872165 -310.349699 
L 591.844049 -292.524495 
L 579.946673 -290.455408 
L 568.180037 -316.572935 
L 556.151921 -309.217524 
L 544.123805 -291.931676 
L 532.226429 -289.512753 
L 520.459794 -317.215664 
L 508.431678 -305.260171 
L 496.403561 -285.704379 
L 484.506186 -284.836408 
L 472.73955 -309.513497 
L 460.711434 -303.785492 
L 448.683318 -281.413155 
L 436.785942 -280.271413 
L 424.888566 -303.733096 
L 412.86045 -303.85513 
L 400.832334 -284.904429 
L 388.934958 -282.210989 
L 377.168322 -309.306995 
L 365.140206 -305.979748 
L 353.11209 -285.213565 
L 341.214714 -282.571643 
L 329.448079 -310.548741 
L 317.419963 -300.846795 
L 305.391846 -282.371342 
L 293.49447 -282.621242 
L 281.727835 -309.198534 
L 269.699719 -298.864864 
L 257.671603 -277.945796 
L 245.774227 -276.799389 
L 233.876851 -305.805097 
L 221.848735 -292.919328 
L 209.820619 -275.608823 
L 197.923243 -274.793594 
L 186.156607 -302.242707 
L 174.128491 -290.307355 
L 162.100375 -269.551162 
L 150.202999 -268.800526 
L 138.436364 -290.387109 
z
" style="stroke: #ff0000; stroke-opacity: 0.1"/>
    </defs>
    <g clip-path="url(#p654df26522)">
     <use xlink:href="#mbbed922ecf" x="0" y="504" style="fill: #ff0000; fill-opacity: 0.1; stroke: #ff0000; stroke-opacity: 0.1"/>
    </g>
   </g>
   <g id="PolyCollection_2">
    <defs>
     <path id="ma00b4f91ff" d="M 138.436364 -104.31198 
L 138.436364 -55.44 
L 150.202999 -55.44 
L 162.100375 -55.44 
L 174.128491 -55.44 
L 186.156607 -55.44 
L 197.923243 -55.44 
L 209.820619 -55.44 
L 221.848735 -55.44 
L 233.876851 -55.44 
L 245.774227 -55.44 
L 257.671603 -55.44 
L 269.699719 -55.44 
L 281.727835 -55.44 
L 293.49447 -55.44 
L 305.391846 -55.44 
L 317.419963 -55.44 
L 329.448079 -55.44 
L 341.214714 -55.44 
L 353.11209 -55.44 
L 365.140206 -55.44 
L 377.168322 -55.44 
L 388.934958 -55.44 
L 400.832334 -55.44 
L 412.86045 -55.44 
L 424.888566 -55.44 
L 436.785942 -55.44 
L 448.683318 -55.44 
L 460.711434 -55.44 
L 472.73955 -55.44 
L 484.506186 -55.44 
L 496.403561 -55.44 
L 508.431678 -55.44 
L 520.459794 -55.44 
L 532.226429 -55.44 
L 544.123805 -55.44 
L 556.151921 -55.44 
L 568.180037 -55.44 
L 579.946673 -55.44 
L 591.844049 -55.44 
L 603.872165 -55.44 
L 615.900281 -55.44 
L 627.797657 -55.44 
L 639.695033 -55.44 
L 651.723149 -55.44 
L 663.751265 -55.44 
L 675.517901 -55.44 
L 687.415276 -55.44 
L 699.443393 -55.44 
L 711.471509 -55.44 
L 723.238144 -55.44 
L 735.13552 -55.44 
L 747.163636 -55.44 
L 747.163636 -99.74031 
L 747.163636 -99.74031 
L 735.13552 -98.967989 
L 723.238144 -97.402483 
L 711.471509 -101.257833 
L 699.443393 -99.002272 
L 687.415276 -98.922113 
L 675.517901 -97.015983 
L 663.751265 -100.237777 
L 651.723149 -97.947868 
L 639.695033 -97.473467 
L 627.797657 -93.715402 
L 615.900281 -99.879022 
L 603.872165 -100.78525 
L 591.844049 -100.199429 
L 579.946673 -98.284528 
L 568.180037 -102.940715 
L 556.151921 -102.208901 
L 544.123805 -100.827558 
L 532.226429 -98.987317 
L 520.459794 -102.535435 
L 508.431678 -101.135012 
L 496.403561 -100.172101 
L 484.506186 -98.325733 
L 472.73955 -100.953143 
L 460.711434 -100.822572 
L 448.683318 -100.990099 
L 436.785942 -98.159808 
L 424.888566 -101.191469 
L 412.86045 -100.482159 
L 400.832334 -101.028173 
L 388.934958 -99.166111 
L 377.168322 -103.895394 
L 365.140206 -101.988694 
L 353.11209 -101.132403 
L 341.214714 -99.633868 
L 329.448079 -104.680417 
L 317.419963 -102.071102 
L 305.391846 -101.257977 
L 293.49447 -99.635273 
L 281.727835 -103.357233 
L 269.699719 -101.0806 
L 257.671603 -101.193455 
L 245.774227 -98.950743 
L 233.876851 -101.405445 
L 221.848735 -101.465606 
L 209.820619 -102.008067 
L 197.923243 -100.000343 
L 186.156607 -103.794637 
L 174.128491 -103.068096 
L 162.100375 -102.574427 
L 150.202999 -100.584604 
L 138.436364 -104.31198 
z
" style="stroke: #008000; stroke-opacity: 0.1"/>
    </defs>
    <g clip-path="url(#p654df26522)">
     <use xlink:href="#ma00b4f91ff" x="0" y="504" style="fill: #008000; fill-opacity: 0.1; stroke: #008000; stroke-opacity: 0.1"/>
    </g>
   </g>
   <g id="line2d_17">
    <path d="M 138.436364 213.612891 
L 150.202999 235.199474 
L 162.100375 234.448838 
L 174.128491 213.692645 
L 186.156607 201.757293 
L 197.923243 229.206406 
L 209.820619 228.391177 
L 221.848735 211.080672 
L 233.876851 198.194903 
L 245.774227 227.200611 
L 257.671603 226.054204 
L 269.699719 205.135136 
L 281.727835 194.801466 
L 293.49447 221.378758 
L 305.391846 221.628658 
L 317.419963 203.153205 
L 329.448079 193.451259 
L 341.214714 221.428357 
L 353.11209 218.786435 
L 365.140206 198.020252 
L 377.168322 194.693005 
L 388.934958 221.789011 
L 400.832334 219.095571 
L 412.86045 200.14487 
L 424.888566 200.266904 
L 436.785942 223.728587 
L 448.683318 222.586845 
L 460.711434 200.214508 
L 472.73955 194.486503 
L 484.506186 219.163592 
L 496.403561 218.295621 
L 508.431678 198.739829 
L 520.459794 186.784336 
L 532.226429 214.487247 
L 544.123805 212.068324 
L 556.151921 194.782476 
L 568.180037 187.427065 
L 579.946673 213.544592 
L 591.844049 211.475505 
L 603.872165 193.650301 
L 615.900281 195.975931 
L 627.797657 233.960663 
L 639.695033 217.138133 
L 651.723149 195.669336 
L 663.751265 184.719793 
L 675.517901 212.132954 
L 687.415276 212.122616 
L 699.443393 190.203574 
L 711.471509 177.48165 
L 723.238144 208.469697 
L 735.13552 208.149075 
L 747.163636 191.904497 
" clip-path="url(#p654df26522)" style="fill: none; stroke-dasharray: 7.4,3.2; stroke-dashoffset: 0; stroke: #006ba4; stroke-width: 2"/>
   </g>
   <g id="line2d_18">
    <path d="M 138.436364 328.875325 
L 150.202999 339.470703 
L 162.100375 339.073786 
L 174.128491 327.252911 
L 186.156607 317.841188 
L 197.923243 333.237222 
L 209.820619 332.575816 
L 221.848735 322.094851 
L 233.876851 312.595771 
L 245.774227 330.738785 
L 257.671603 330.537887 
L 269.699719 317.376545 
L 281.727835 310.719609 
L 293.49447 325.699284 
L 305.391846 326.26473 
L 317.419963 314.714174 
L 329.448079 308.673579 
L 341.214714 324.903755 
L 353.11209 322.58087 
L 365.140206 310.204456 
L 377.168322 309.435685 
L 388.934958 324.229331 
L 400.832334 322.862705 
L 412.86045 310.46799 
L 424.888566 311.892506 
L 436.785942 325.822048 
L 448.683318 325.674744 
L 460.711434 311.744087 
L 472.73955 307.663067 
L 484.506186 322.215332 
L 496.403561 321.918095 
L 508.431678 309.836289 
L 520.459794 302.196393 
L 532.226429 317.535396 
L 544.123805 315.966668 
L 556.151921 307.835064 
L 568.180037 302.036817 
L 579.946673 315.688256 
L 591.844049 315.61792 
L 603.872165 302.969378 
L 615.900281 304.433374 
L 627.797657 323.343932 
L 639.695033 313.800562 
L 651.723149 300.146024 
L 663.751265 294.124388 
L 675.517901 311.344795 
L 687.415276 312.095855 
L 699.443393 298.234619 
L 711.471509 289.175971 
L 723.238144 308.934521 
L 735.13552 308.500916 
L 747.163636 298.748625 
" clip-path="url(#p654df26522)" style="fill: none; stroke: #ff800e; stroke-width: 2; stroke-linecap: round"/>
   </g>
   <g id="line2d_19">
    <path d="M 138.436364 404.74734 
L 150.202999 414.430586 
L 162.100375 416.237284 
L 174.128491 406.075214 
L 186.156607 404.525308 
L 197.923243 414.434457 
L 209.820619 416.323757 
L 221.848735 407.360799 
L 233.876851 404.529358 
L 245.774227 414.915831 
L 257.671603 416.7092 
L 269.699719 407.542042 
L 281.727835 405.888473 
L 293.49447 415.411886 
L 305.391846 416.88659 
L 317.419963 408.984479 
L 329.448079 408.286432 
L 341.214714 416.374942 
L 353.11209 418.025758 
L 365.140206 409.288919 
L 377.168322 408.54444 
L 388.934958 416.662023 
L 400.832334 417.739162 
L 412.86045 409.833645 
L 424.888566 408.933762 
L 436.785942 417.037997 
L 448.683318 418.538341 
L 460.711434 408.357512 
L 472.73955 407.940035 
L 484.506186 416.083176 
L 496.403561 417.993189 
L 508.431678 409.612295 
L 520.459794 407.088682 
L 532.226429 416.844221 
L 544.123805 418.16359 
L 556.151921 409.22768 
L 568.180037 408.84205 
L 579.946673 416.99763 
L 591.844049 418.173015 
L 603.872165 410.931982 
L 615.900281 411.513989 
L 627.797657 421.55934 
L 639.695033 420.498757 
L 651.723149 412.189123 
L 663.751265 410.714001 
L 675.517901 418.81174 
L 687.415276 419.668124 
L 699.443393 410.824636 
L 711.471509 410.635647 
L 723.238144 418.785699 
L 735.13552 419.802778 
L 747.163636 412.287457 
" clip-path="url(#p654df26522)" style="fill: none; stroke: #ababab; stroke-width: 2; stroke-linecap: round"/>
   </g>
   <g id="line2d_20">
    <path d="M 138.436364 409.39002 
L 150.202999 413.117396 
L 162.100375 411.127573 
L 174.128491 410.633904 
L 186.156607 409.907363 
L 197.923243 413.701657 
L 209.820619 411.693933 
L 221.848735 412.236394 
L 233.876851 412.296555 
L 245.774227 414.751257 
L 257.671603 412.508545 
L 269.699719 412.6214 
L 281.727835 410.344767 
L 293.49447 414.066727 
L 305.391846 412.444023 
L 317.419963 411.630898 
L 329.448079 409.021583 
L 341.214714 414.068132 
L 353.11209 412.569597 
L 365.140206 411.713306 
L 377.168322 409.806606 
L 388.934958 414.535889 
L 400.832334 412.673827 
L 412.86045 413.219841 
L 424.888566 412.510531 
L 436.785942 415.542192 
L 448.683318 412.711901 
L 460.711434 412.879428 
L 472.73955 412.748857 
L 484.506186 415.376267 
L 496.403561 413.529899 
L 508.431678 412.566988 
L 520.459794 411.166565 
L 532.226429 414.714683 
L 544.123805 412.874442 
L 556.151921 411.493099 
L 568.180037 410.761285 
L 579.946673 415.417472 
L 591.844049 413.502571 
L 603.872165 412.91675 
L 615.900281 413.822978 
L 627.797657 419.986598 
L 639.695033 416.228533 
L 651.723149 415.754132 
L 663.751265 413.464223 
L 675.517901 416.686017 
L 687.415276 414.779887 
L 699.443393 414.699728 
L 711.471509 412.444167 
L 723.238144 416.299517 
L 735.13552 414.734011 
L 747.163636 413.96169 
" clip-path="url(#p654df26522)" style="fill: none; stroke: #595959; stroke-width: 2; stroke-linecap: round"/>
   </g>
   <g id="line2d_21">
    <path d="M 138.436364 435.052252 
L 150.202999 434.512308 
L 162.100375 434.347336 
L 174.128491 434.605564 
L 186.156607 434.640199 
L 197.923243 434.499903 
L 209.820619 434.599953 
L 221.848735 434.659002 
L 233.876851 434.26868 
L 245.774227 433.91603 
L 257.671603 433.893444 
L 269.699719 433.553348 
L 281.727835 433.918838 
L 293.49447 433.561083 
L 305.391846 433.728915 
L 317.419963 433.55322 
L 329.448079 433.645602 
L 341.214714 433.432749 
L 353.11209 433.221664 
L 365.140206 432.933078 
L 377.168322 433.344194 
L 388.934958 433.654956 
L 400.832334 433.184954 
L 412.86045 432.622894 
L 424.888566 433.219179 
L 436.785942 433.091144 
L 448.683318 433.001303 
L 460.711434 432.666928 
L 472.73955 432.975371 
L 484.506186 432.999706 
L 496.403561 432.489344 
L 508.431678 431.88627 
L 520.459794 432.549937 
L 532.226429 432.571118 
L 544.123805 432.235264 
L 556.151921 431.536011 
L 568.180037 432.302741 
L 579.946673 432.305437 
L 591.844049 431.939711 
L 603.872165 431.456974 
L 615.900281 432.091526 
L 627.797657 433.917009 
L 639.695033 432.458948 
L 651.723149 432.147716 
L 663.751265 432.374893 
L 675.517901 432.17057 
L 687.415276 432.033764 
L 699.443393 431.419321 
L 711.471509 431.552246 
L 723.238144 431.87338 
L 735.13552 432.03648 
L 747.163636 431.761243 
" clip-path="url(#p654df26522)" style="fill: none; stroke: #5f9ed1; stroke-width: 2; stroke-linecap: round"/>
   </g>
   <g id="line2d_22">
    <path d="M 138.436364 433.024252 
L 150.202999 431.104676 
L 162.100375 431.18721 
L 174.128491 432.604582 
L 186.156607 432.246698 
L 197.923243 430.802771 
L 209.820619 430.719399 
L 221.848735 432.291636 
L 233.876851 431.972585 
L 245.774227 430.400375 
L 257.671603 429.921131 
L 269.699719 431.603972 
L 281.727835 431.410621 
L 293.49447 430.096576 
L 305.391846 429.715482 
L 317.419963 431.768839 
L 329.448079 431.256137 
L 341.214714 430.030445 
L 353.11209 429.842192 
L 365.140206 431.412524 
L 377.168322 430.989373 
L 388.934958 430.152478 
L 400.832334 430.184801 
L 412.86045 431.581407 
L 424.888566 431.24001 
L 436.785942 429.758524 
L 448.683318 430.201252 
L 460.711434 432.140246 
L 472.73955 430.696903 
L 484.506186 430.048183 
L 496.403561 429.977373 
L 508.431678 432.472276 
L 520.459794 431.354197 
L 532.226429 430.400057 
L 544.123805 430.412415 
L 556.151921 432.327743 
L 568.180037 431.034819 
L 579.946673 430.670021 
L 591.844049 429.787457 
L 603.872165 433.006715 
L 615.900281 431.612275 
L 627.797657 432.390692 
L 639.695033 431.551042 
L 651.723149 432.904621 
L 663.751265 431.393795 
L 675.517901 430.530433 
L 687.415276 430.811576 
L 699.443393 432.408129 
L 711.471509 430.98854 
L 723.238144 429.967388 
L 735.13552 430.488478 
L 747.163636 432.573425 
" clip-path="url(#p654df26522)" style="fill: none; stroke: #c85200; stroke-width: 2; stroke-linecap: round"/>
   </g>
   <g id="line2d_23">
    <path d="M 138.436364 445.404627 
L 150.202999 445.44071 
L 162.100375 445.417118 
L 174.128491 445.411645 
L 186.156607 445.480013 
L 197.923243 445.40692 
L 209.820619 445.422406 
L 221.848735 445.326384 
L 233.876851 445.403555 
L 245.774227 445.377138 
L 257.671603 445.430939 
L 269.699719 445.332185 
L 281.727835 445.390049 
L 293.49447 445.422221 
L 305.391846 445.532929 
L 317.419963 445.404519 
L 329.448079 445.471712 
L 341.214714 445.521568 
L 353.11209 445.493747 
L 365.140206 445.356364 
L 377.168322 445.467419 
L 388.934958 445.454346 
L 400.832334 445.4076 
L 412.86045 445.334582 
L 424.888566 445.368926 
L 436.785942 445.390302 
L 448.683318 445.410814 
L 460.711434 445.352029 
L 472.73955 445.380754 
L 484.506186 445.364813 
L 496.403561 445.330258 
L 508.431678 445.270877 
L 520.459794 445.33633 
L 532.226429 445.348944 
L 544.123805 445.391219 
L 556.151921 445.274521 
L 568.180037 445.35622 
L 579.946673 445.384349 
L 591.844049 445.438106 
L 603.872165 445.299054 
L 615.900281 445.386511 
L 627.797657 445.652267 
L 639.695033 445.541106 
L 651.723149 445.43803 
L 663.751265 445.552954 
L 675.517901 445.52154 
L 687.415276 445.655071 
L 699.443393 445.49655 
L 711.471509 445.594187 
L 723.238144 445.518643 
L 735.13552 445.511628 
L 747.163636 445.469465 
" clip-path="url(#p654df26522)" style="fill: none; stroke: #898989; stroke-width: 2; stroke-linecap: round"/>
   </g>
   <g id="patch_3">
    <path d="M 108 448.56 
L 108 60.48 
" style="fill: none; stroke: #cccccc; stroke-width: 0.8; stroke-linejoin: miter; stroke-linecap: square"/>
   </g>
   <g id="patch_4">
    <path d="M 777.6 448.56 
L 777.6 60.48 
" style="fill: none; stroke: #cccccc; stroke-width: 0.8; stroke-linejoin: miter; stroke-linecap: square"/>
   </g>
   <g id="patch_5">
    <path d="M 108 448.56 
L 777.6 448.56 
" style="fill: none; stroke: #cccccc; stroke-width: 0.8; stroke-linejoin: miter; stroke-linecap: square"/>
   </g>
   <g id="patch_6">
    <path d="M 108 60.48 
L 777.6 60.48 
" style="fill: none; stroke: #cccccc; stroke-width: 0.8; stroke-linejoin: miter; stroke-linecap: square"/>
   </g>
   <g id="text_19">
    <!-- Million Metric Tons of GHG CO2 Equivalent Over Time -->
    <g style="fill: #262626" transform="translate(143.154688 40.48) scale(0.2 -0.2)">
     <defs>
      <path id="DejaVuSans-Bold-47" d="M 4781 347 
Q 4331 128 3847 18 
Q 3363 -91 2847 -91 
Q 1681 -91 1000 561 
Q 319 1213 319 2328 
Q 319 3456 1012 4103 
Q 1706 4750 2913 4750 
Q 3378 4750 3804 4662 
Q 4231 4575 4609 4403 
L 4609 3438 
Q 4219 3659 3833 3768 
Q 3447 3878 3059 3878 
Q 2341 3878 1952 3476 
Q 1563 3075 1563 2328 
Q 1563 1588 1938 1184 
Q 2313 781 3003 781 
Q 3191 781 3352 804 
Q 3513 828 3641 878 
L 3641 1784 
L 2906 1784 
L 2906 2591 
L 4781 2591 
L 4781 347 
z
" transform="scale(0.015625)"/>
      <path id="DejaVuSans-Bold-48" d="M 588 4666 
L 1791 4666 
L 1791 2888 
L 3566 2888 
L 3566 4666 
L 4769 4666 
L 4769 0 
L 3566 0 
L 3566 1978 
L 1791 1978 
L 1791 0 
L 588 0 
L 588 4666 
z
" transform="scale(0.015625)"/>
      <path id="DejaVuSans-Bold-45" d="M 588 4666 
L 3834 4666 
L 3834 3756 
L 1791 3756 
L 1791 2888 
L 3713 2888 
L 3713 1978 
L 1791 1978 
L 1791 909 
L 3903 909 
L 3903 0 
L 588 0 
L 588 4666 
z
" transform="scale(0.015625)"/>
      <path id="DejaVuSans-Bold-71" d="M 2181 2772 
Q 1825 2772 1636 2509 
Q 1447 2247 1447 1747 
Q 1447 1247 1636 984 
Q 1825 722 2181 722 
Q 2541 722 2730 984 
Q 2919 1247 2919 1747 
Q 2919 2247 2730 2509 
Q 2541 2772 2181 2772 
z
M 2919 506 
Q 2688 197 2409 53 
Q 2131 -91 1766 -91 
Q 1119 -91 703 423 
Q 288 938 288 1747 
Q 288 2556 703 3067 
Q 1119 3578 1766 3578 
Q 2131 3578 2409 3434 
Q 2688 3291 2919 2981 
L 2919 3500 
L 4044 3500 
L 4044 -1331 
L 2919 -1331 
L 2919 506 
z
" transform="scale(0.015625)"/>
      <path id="DejaVuSans-Bold-75" d="M 500 1363 
L 500 3500 
L 1625 3500 
L 1625 3150 
Q 1625 2866 1622 2436 
Q 1619 2006 1619 1863 
Q 1619 1441 1641 1255 
Q 1663 1069 1716 984 
Q 1784 875 1895 815 
Q 2006 756 2150 756 
Q 2500 756 2700 1025 
Q 2900 1294 2900 1772 
L 2900 3500 
L 4019 3500 
L 4019 0 
L 2900 0 
L 2900 506 
Q 2647 200 2364 54 
Q 2081 -91 1741 -91 
Q 1134 -91 817 281 
Q 500 653 500 1363 
z
" transform="scale(0.015625)"/>
      <path id="DejaVuSans-Bold-76" d="M 97 3500 
L 1216 3500 
L 2088 1081 
L 2956 3500 
L 4078 3500 
L 2700 0 
L 1472 0 
L 97 3500 
z
" transform="scale(0.015625)"/>
      <path id="DejaVuSans-Bold-6d" d="M 3781 2919 
Q 3994 3244 4286 3414 
Q 4578 3584 4928 3584 
Q 5531 3584 5847 3212 
Q 6163 2841 6163 2131 
L 6163 0 
L 5038 0 
L 5038 1825 
Q 5041 1866 5042 1909 
Q 5044 1953 5044 2034 
Q 5044 2406 4934 2573 
Q 4825 2741 4581 2741 
Q 4263 2741 4089 2478 
Q 3916 2216 3909 1719 
L 3909 0 
L 2784 0 
L 2784 1825 
Q 2784 2406 2684 2573 
Q 2584 2741 2328 2741 
Q 2006 2741 1831 2477 
Q 1656 2213 1656 1722 
L 1656 0 
L 531 0 
L 531 3500 
L 1656 3500 
L 1656 2988 
Q 1863 3284 2130 3434 
Q 2397 3584 2719 3584 
Q 3081 3584 3359 3409 
Q 3638 3234 3781 2919 
z
" transform="scale(0.015625)"/>
     </defs>
     <use xlink:href="#DejaVuSans-Bold-4d"/>
     <use xlink:href="#DejaVuSans-Bold-69" x="99.511719"/>
     <use xlink:href="#DejaVuSans-Bold-6c" x="133.789062"/>
     <use xlink:href="#DejaVuSans-Bold-6c" x="168.066406"/>
     <use xlink:href="#DejaVuSans-Bold-69" x="202.34375"/>
     <use xlink:href="#DejaVuSans-Bold-6f" x="236.621094"/>
     <use xlink:href="#DejaVuSans-Bold-6e" x="305.322266"/>
     <use xlink:href="#DejaVuSans-Bold-20" x="376.513672"/>
     <use xlink:href="#DejaVuSans-Bold-4d" x="411.328125"/>
     <use xlink:href="#DejaVuSans-Bold-65" x="510.839844"/>
     <use xlink:href="#DejaVuSans-Bold-74" x="578.662109"/>
     <use xlink:href="#DejaVuSans-Bold-72" x="626.464844"/>
     <use xlink:href="#DejaVuSans-Bold-69" x="675.78125"/>
     <use xlink:href="#DejaVuSans-Bold-63" x="710.058594"/>
     <use xlink:href="#DejaVuSans-Bold-20" x="769.335938"/>
     <use xlink:href="#DejaVuSans-Bold-54" x="804.150391"/>
     <use xlink:href="#DejaVuSans-Bold-6f" x="859.113281"/>
     <use xlink:href="#DejaVuSans-Bold-6e" x="927.814453"/>
     <use xlink:href="#DejaVuSans-Bold-73" x="999.005859"/>
     <use xlink:href="#DejaVuSans-Bold-20" x="1058.527344"/>
     <use xlink:href="#DejaVuSans-Bold-6f" x="1093.341797"/>
     <use xlink:href="#DejaVuSans-Bold-66" x="1162.042969"/>
     <use xlink:href="#DejaVuSans-Bold-20" x="1205.548828"/>
     <use xlink:href="#DejaVuSans-Bold-47" x="1240.363281"/>
     <use xlink:href="#DejaVuSans-Bold-48" x="1322.443359"/>
     <use xlink:href="#DejaVuSans-Bold-47" x="1406.134766"/>
     <use xlink:href="#DejaVuSans-Bold-20" x="1488.214844"/>
     <use xlink:href="#DejaVuSans-Bold-43" x="1523.029297"/>
     <use xlink:href="#DejaVuSans-Bold-4f" x="1596.417969"/>
     <use xlink:href="#DejaVuSans-Bold-32" x="1681.427734"/>
     <use xlink:href="#DejaVuSans-Bold-20" x="1751.007812"/>
     <use xlink:href="#DejaVuSans-Bold-45" x="1785.822266"/>
     <use xlink:href="#DejaVuSans-Bold-71" x="1854.132812"/>
     <use xlink:href="#DejaVuSans-Bold-75" x="1925.714844"/>
     <use xlink:href="#DejaVuSans-Bold-69" x="1996.90625"/>
     <use xlink:href="#DejaVuSans-Bold-76" x="2031.183594"/>
     <use xlink:href="#DejaVuSans-Bold-61" x="2096.369141"/>
     <use xlink:href="#DejaVuSans-Bold-6c" x="2163.849609"/>
     <use xlink:href="#DejaVuSans-Bold-65" x="2198.126953"/>
     <use xlink:href="#DejaVuSans-Bold-6e" x="2265.949219"/>
     <use xlink:href="#DejaVuSans-Bold-74" x="2337.140625"/>
     <use xlink:href="#DejaVuSans-Bold-20" x="2384.943359"/>
     <use xlink:href="#DejaVuSans-Bold-4f" x="2419.757812"/>
     <use xlink:href="#DejaVuSans-Bold-76" x="2504.767578"/>
     <use xlink:href="#DejaVuSans-Bold-65" x="2569.953125"/>
     <use xlink:href="#DejaVuSans-Bold-72" x="2637.775391"/>
     <use xlink:href="#DejaVuSans-Bold-20" x="2687.091797"/>
     <use xlink:href="#DejaVuSans-Bold-54" x="2721.90625"/>
     <use xlink:href="#DejaVuSans-Bold-69" x="2790.119141"/>
     <use xlink:href="#DejaVuSans-Bold-6d" x="2824.396484"/>
     <use xlink:href="#DejaVuSans-Bold-65" x="2928.595703"/>
    </g>
   </g>
   <g id="legend_1">
    <g id="patch_7">
     <path d="M 115 185.905 
L 312.239063 185.905 
Q 314.239063 185.905 314.239063 183.905 
L 314.239063 67.48 
Q 314.239063 65.48 312.239063 65.48 
L 115 65.48 
Q 113 65.48 113 67.48 
L 113 183.905 
Q 113 185.905 115 185.905 
z
" style="fill: #ffffff; opacity: 0.8; stroke: #cccccc; stroke-linejoin: miter"/>
    </g>
    <g id="text_20">
     <!-- Continents -->
     <g style="fill: #262626" transform="translate(186.571875 77.078438) scale(0.1 -0.1)">
      <defs>
       <path id="DejaVuSans-43" d="M 4122 4306 
L 4122 3641 
Q 3803 3938 3442 4084 
Q 3081 4231 2675 4231 
Q 1875 4231 1450 3742 
Q 1025 3253 1025 2328 
Q 1025 1406 1450 917 
Q 1875 428 2675 428 
Q 3081 428 3442 575 
Q 3803 722 4122 1019 
L 4122 359 
Q 3791 134 3420 21 
Q 3050 -91 2638 -91 
Q 1578 -91 968 557 
Q 359 1206 359 2328 
Q 359 3453 968 4101 
Q 1578 4750 2638 4750 
Q 3056 4750 3426 4639 
Q 3797 4528 4122 4306 
z
" transform="scale(0.015625)"/>
       <path id="DejaVuSans-6f" d="M 1959 3097 
Q 1497 3097 1228 2736 
Q 959 2375 959 1747 
Q 959 1119 1226 758 
Q 1494 397 1959 397 
Q 2419 397 2687 759 
Q 2956 1122 2956 1747 
Q 2956 2369 2687 2733 
Q 2419 3097 1959 3097 
z
M 1959 3584 
Q 2709 3584 3137 3096 
Q 3566 2609 3566 1747 
Q 3566 888 3137 398 
Q 2709 -91 1959 -91 
Q 1206 -91 779 398 
Q 353 888 353 1747 
Q 353 2609 779 3096 
Q 1206 3584 1959 3584 
z
" transform="scale(0.015625)"/>
       <path id="DejaVuSans-6e" d="M 3513 2113 
L 3513 0 
L 2938 0 
L 2938 2094 
Q 2938 2591 2744 2837 
Q 2550 3084 2163 3084 
Q 1697 3084 1428 2787 
Q 1159 2491 1159 1978 
L 1159 0 
L 581 0 
L 581 3500 
L 1159 3500 
L 1159 2956 
Q 1366 3272 1645 3428 
Q 1925 3584 2291 3584 
Q 2894 3584 3203 3211 
Q 3513 2838 3513 2113 
z
" transform="scale(0.015625)"/>
       <path id="DejaVuSans-74" d="M 1172 4494 
L 1172 3500 
L 2356 3500 
L 2356 3053 
L 1172 3053 
L 1172 1153 
Q 1172 725 1289 603 
Q 1406 481 1766 481 
L 2356 481 
L 2356 0 
L 1766 0 
Q 1100 0 847 248 
Q 594 497 594 1153 
L 594 3053 
L 172 3053 
L 172 3500 
L 594 3500 
L 594 4494 
L 1172 4494 
z
" transform="scale(0.015625)"/>
       <path id="DejaVuSans-69" d="M 603 3500 
L 1178 3500 
L 1178 0 
L 603 0 
L 603 3500 
z
M 603 4863 
L 1178 4863 
L 1178 4134 
L 603 4134 
L 603 4863 
z
" transform="scale(0.015625)"/>
       <path id="DejaVuSans-65" d="M 3597 1894 
L 3597 1613 
L 953 1613 
Q 991 1019 1311 708 
Q 1631 397 2203 397 
Q 2534 397 2845 478 
Q 3156 559 3463 722 
L 3463 178 
Q 3153 47 2828 -22 
Q 2503 -91 2169 -91 
Q 1331 -91 842 396 
Q 353 884 353 1716 
Q 353 2575 817 3079 
Q 1281 3584 2069 3584 
Q 2775 3584 3186 3129 
Q 3597 2675 3597 1894 
z
M 3022 2063 
Q 3016 2534 2758 2815 
Q 2500 3097 2075 3097 
Q 1594 3097 1305 2825 
Q 1016 2553 972 2059 
L 3022 2063 
z
" transform="scale(0.015625)"/>
       <path id="DejaVuSans-73" d="M 2834 3397 
L 2834 2853 
Q 2591 2978 2328 3040 
Q 2066 3103 1784 3103 
Q 1356 3103 1142 2972 
Q 928 2841 928 2578 
Q 928 2378 1081 2264 
Q 1234 2150 1697 2047 
L 1894 2003 
Q 2506 1872 2764 1633 
Q 3022 1394 3022 966 
Q 3022 478 2636 193 
Q 2250 -91 1575 -91 
Q 1294 -91 989 -36 
Q 684 19 347 128 
L 347 722 
Q 666 556 975 473 
Q 1284 391 1588 391 
Q 1994 391 2212 530 
Q 2431 669 2431 922 
Q 2431 1156 2273 1281 
Q 2116 1406 1581 1522 
L 1381 1569 
Q 847 1681 609 1914 
Q 372 2147 372 2553 
Q 372 3047 722 3315 
Q 1072 3584 1716 3584 
Q 2034 3584 2315 3537 
Q 2597 3491 2834 3397 
z
" transform="scale(0.015625)"/>
      </defs>
      <use xlink:href="#DejaVuSans-43"/>
      <use xlink:href="#DejaVuSans-6f" x="69.824219"/>
      <use xlink:href="#DejaVuSans-6e" x="131.005859"/>
      <use xlink:href="#DejaVuSans-74" x="194.384766"/>
      <use xlink:href="#DejaVuSans-69" x="233.59375"/>
      <use xlink:href="#DejaVuSans-6e" x="261.376953"/>
      <use xlink:href="#DejaVuSans-65" x="324.755859"/>
      <use xlink:href="#DejaVuSans-6e" x="386.279297"/>
      <use xlink:href="#DejaVuSans-74" x="449.658203"/>
      <use xlink:href="#DejaVuSans-73" x="488.867188"/>
     </g>
    </g>
    <g id="line2d_24">
     <path d="M 117 88.256563 
L 127 88.256563 
L 137 88.256563 
" style="fill: none; stroke-dasharray: 7.4,3.2; stroke-dashoffset: 0; stroke: #006ba4; stroke-width: 2"/>
    </g>
    <g id="text_21">
     <!-- World -->
     <g style="fill: #262626" transform="translate(145 91.756563) scale(0.1 -0.1)">
      <defs>
       <path id="DejaVuSans-57" d="M 213 4666 
L 850 4666 
L 1831 722 
L 2809 4666 
L 3519 4666 
L 4500 722 
L 5478 4666 
L 6119 4666 
L 4947 0 
L 4153 0 
L 3169 4050 
L 2175 0 
L 1381 0 
L 213 4666 
z
" transform="scale(0.015625)"/>
       <path id="DejaVuSans-72" d="M 2631 2963 
Q 2534 3019 2420 3045 
Q 2306 3072 2169 3072 
Q 1681 3072 1420 2755 
Q 1159 2438 1159 1844 
L 1159 0 
L 581 0 
L 581 3500 
L 1159 3500 
L 1159 2956 
Q 1341 3275 1631 3429 
Q 1922 3584 2338 3584 
Q 2397 3584 2469 3576 
Q 2541 3569 2628 3553 
L 2631 2963 
z
" transform="scale(0.015625)"/>
       <path id="DejaVuSans-6c" d="M 603 4863 
L 1178 4863 
L 1178 0 
L 603 0 
L 603 4863 
z
" transform="scale(0.015625)"/>
       <path id="DejaVuSans-64" d="M 2906 2969 
L 2906 4863 
L 3481 4863 
L 3481 0 
L 2906 0 
L 2906 525 
Q 2725 213 2448 61 
Q 2172 -91 1784 -91 
Q 1150 -91 751 415 
Q 353 922 353 1747 
Q 353 2572 751 3078 
Q 1150 3584 1784 3584 
Q 2172 3584 2448 3432 
Q 2725 3281 2906 2969 
z
M 947 1747 
Q 947 1113 1208 752 
Q 1469 391 1925 391 
Q 2381 391 2643 752 
Q 2906 1113 2906 1747 
Q 2906 2381 2643 2742 
Q 2381 3103 1925 3103 
Q 1469 3103 1208 2742 
Q 947 2381 947 1747 
z
" transform="scale(0.015625)"/>
      </defs>
      <use xlink:href="#DejaVuSans-57"/>
      <use xlink:href="#DejaVuSans-6f" x="93.001953"/>
      <use xlink:href="#DejaVuSans-72" x="154.183594"/>
      <use xlink:href="#DejaVuSans-6c" x="195.296875"/>
      <use xlink:href="#DejaVuSans-64" x="223.080078"/>
     </g>
    </g>
    <g id="line2d_25">
     <path d="M 117 102.934688 
L 127 102.934688 
L 137 102.934688 
" style="fill: none; stroke: #ff800e; stroke-width: 2; stroke-linecap: round"/>
    </g>
    <g id="text_22">
     <!-- Asia -->
     <g style="fill: #262626" transform="translate(145 106.434688) scale(0.1 -0.1)">
      <defs>
       <path id="DejaVuSans-41" d="M 2188 4044 
L 1331 1722 
L 3047 1722 
L 2188 4044 
z
M 1831 4666 
L 2547 4666 
L 4325 0 
L 3669 0 
L 3244 1197 
L 1141 1197 
L 716 0 
L 50 0 
L 1831 4666 
z
" transform="scale(0.015625)"/>
       <path id="DejaVuSans-61" d="M 2194 1759 
Q 1497 1759 1228 1600 
Q 959 1441 959 1056 
Q 959 750 1161 570 
Q 1363 391 1709 391 
Q 2188 391 2477 730 
Q 2766 1069 2766 1631 
L 2766 1759 
L 2194 1759 
z
M 3341 1997 
L 3341 0 
L 2766 0 
L 2766 531 
Q 2569 213 2275 61 
Q 1981 -91 1556 -91 
Q 1019 -91 701 211 
Q 384 513 384 1019 
Q 384 1609 779 1909 
Q 1175 2209 1959 2209 
L 2766 2209 
L 2766 2266 
Q 2766 2663 2505 2880 
Q 2244 3097 1772 3097 
Q 1472 3097 1187 3025 
Q 903 2953 641 2809 
L 641 3341 
Q 956 3463 1253 3523 
Q 1550 3584 1831 3584 
Q 2591 3584 2966 3190 
Q 3341 2797 3341 1997 
z
" transform="scale(0.015625)"/>
      </defs>
      <use xlink:href="#DejaVuSans-41"/>
      <use xlink:href="#DejaVuSans-73" x="68.408203"/>
      <use xlink:href="#DejaVuSans-69" x="120.507812"/>
      <use xlink:href="#DejaVuSans-61" x="148.291016"/>
     </g>
    </g>
    <g id="line2d_26">
     <path d="M 117 117.612813 
L 127 117.612813 
L 137 117.612813 
" style="fill: none; stroke: #ababab; stroke-width: 2; stroke-linecap: round"/>
    </g>
    <g id="text_23">
     <!-- Europe -->
     <g style="fill: #262626" transform="translate(145 121.112813) scale(0.1 -0.1)">
      <defs>
       <path id="DejaVuSans-45" d="M 628 4666 
L 3578 4666 
L 3578 4134 
L 1259 4134 
L 1259 2753 
L 3481 2753 
L 3481 2222 
L 1259 2222 
L 1259 531 
L 3634 531 
L 3634 0 
L 628 0 
L 628 4666 
z
" transform="scale(0.015625)"/>
       <path id="DejaVuSans-75" d="M 544 1381 
L 544 3500 
L 1119 3500 
L 1119 1403 
Q 1119 906 1312 657 
Q 1506 409 1894 409 
Q 2359 409 2629 706 
Q 2900 1003 2900 1516 
L 2900 3500 
L 3475 3500 
L 3475 0 
L 2900 0 
L 2900 538 
Q 2691 219 2414 64 
Q 2138 -91 1772 -91 
Q 1169 -91 856 284 
Q 544 659 544 1381 
z
M 1991 3584 
L 1991 3584 
z
" transform="scale(0.015625)"/>
       <path id="DejaVuSans-70" d="M 1159 525 
L 1159 -1331 
L 581 -1331 
L 581 3500 
L 1159 3500 
L 1159 2969 
Q 1341 3281 1617 3432 
Q 1894 3584 2278 3584 
Q 2916 3584 3314 3078 
Q 3713 2572 3713 1747 
Q 3713 922 3314 415 
Q 2916 -91 2278 -91 
Q 1894 -91 1617 61 
Q 1341 213 1159 525 
z
M 3116 1747 
Q 3116 2381 2855 2742 
Q 2594 3103 2138 3103 
Q 1681 3103 1420 2742 
Q 1159 2381 1159 1747 
Q 1159 1113 1420 752 
Q 1681 391 2138 391 
Q 2594 391 2855 752 
Q 3116 1113 3116 1747 
z
" transform="scale(0.015625)"/>
      </defs>
      <use xlink:href="#DejaVuSans-45"/>
      <use xlink:href="#DejaVuSans-75" x="63.183594"/>
      <use xlink:href="#DejaVuSans-72" x="126.5625"/>
      <use xlink:href="#DejaVuSans-6f" x="165.425781"/>
      <use xlink:href="#DejaVuSans-70" x="226.607422"/>
      <use xlink:href="#DejaVuSans-65" x="290.083984"/>
     </g>
    </g>
    <g id="line2d_27">
     <path d="M 117 132.290938 
L 127 132.290938 
L 137 132.290938 
" style="fill: none; stroke: #595959; stroke-width: 2; stroke-linecap: round"/>
    </g>
    <g id="text_24">
     <!-- Northern America -->
     <g style="fill: #262626" transform="translate(145 135.790938) scale(0.1 -0.1)">
      <defs>
       <path id="DejaVuSans-4e" d="M 628 4666 
L 1478 4666 
L 3547 763 
L 3547 4666 
L 4159 4666 
L 4159 0 
L 3309 0 
L 1241 3903 
L 1241 0 
L 628 0 
L 628 4666 
z
" transform="scale(0.015625)"/>
       <path id="DejaVuSans-68" d="M 3513 2113 
L 3513 0 
L 2938 0 
L 2938 2094 
Q 2938 2591 2744 2837 
Q 2550 3084 2163 3084 
Q 1697 3084 1428 2787 
Q 1159 2491 1159 1978 
L 1159 0 
L 581 0 
L 581 4863 
L 1159 4863 
L 1159 2956 
Q 1366 3272 1645 3428 
Q 1925 3584 2291 3584 
Q 2894 3584 3203 3211 
Q 3513 2838 3513 2113 
z
" transform="scale(0.015625)"/>
       <path id="DejaVuSans-20" transform="scale(0.015625)"/>
       <path id="DejaVuSans-6d" d="M 3328 2828 
Q 3544 3216 3844 3400 
Q 4144 3584 4550 3584 
Q 5097 3584 5394 3201 
Q 5691 2819 5691 2113 
L 5691 0 
L 5113 0 
L 5113 2094 
Q 5113 2597 4934 2840 
Q 4756 3084 4391 3084 
Q 3944 3084 3684 2787 
Q 3425 2491 3425 1978 
L 3425 0 
L 2847 0 
L 2847 2094 
Q 2847 2600 2669 2842 
Q 2491 3084 2119 3084 
Q 1678 3084 1418 2786 
Q 1159 2488 1159 1978 
L 1159 0 
L 581 0 
L 581 3500 
L 1159 3500 
L 1159 2956 
Q 1356 3278 1631 3431 
Q 1906 3584 2284 3584 
Q 2666 3584 2933 3390 
Q 3200 3197 3328 2828 
z
" transform="scale(0.015625)"/>
       <path id="DejaVuSans-63" d="M 3122 3366 
L 3122 2828 
Q 2878 2963 2633 3030 
Q 2388 3097 2138 3097 
Q 1578 3097 1268 2742 
Q 959 2388 959 1747 
Q 959 1106 1268 751 
Q 1578 397 2138 397 
Q 2388 397 2633 464 
Q 2878 531 3122 666 
L 3122 134 
Q 2881 22 2623 -34 
Q 2366 -91 2075 -91 
Q 1284 -91 818 406 
Q 353 903 353 1747 
Q 353 2603 823 3093 
Q 1294 3584 2113 3584 
Q 2378 3584 2631 3529 
Q 2884 3475 3122 3366 
z
" transform="scale(0.015625)"/>
      </defs>
      <use xlink:href="#DejaVuSans-4e"/>
      <use xlink:href="#DejaVuSans-6f" x="74.804688"/>
      <use xlink:href="#DejaVuSans-72" x="135.986328"/>
      <use xlink:href="#DejaVuSans-74" x="177.099609"/>
      <use xlink:href="#DejaVuSans-68" x="216.308594"/>
      <use xlink:href="#DejaVuSans-65" x="279.6875"/>
      <use xlink:href="#DejaVuSans-72" x="341.210938"/>
      <use xlink:href="#DejaVuSans-6e" x="380.574219"/>
      <use xlink:href="#DejaVuSans-20" x="443.953125"/>
      <use xlink:href="#DejaVuSans-41" x="475.740234"/>
      <use xlink:href="#DejaVuSans-6d" x="544.148438"/>
      <use xlink:href="#DejaVuSans-65" x="641.560547"/>
      <use xlink:href="#DejaVuSans-72" x="703.083984"/>
      <use xlink:href="#DejaVuSans-69" x="744.197266"/>
      <use xlink:href="#DejaVuSans-63" x="771.980469"/>
      <use xlink:href="#DejaVuSans-61" x="826.960938"/>
     </g>
    </g>
    <g id="line2d_28">
     <path d="M 117 146.969063 
L 127 146.969063 
L 137 146.969063 
" style="fill: none; stroke: #5f9ed1; stroke-width: 2; stroke-linecap: round"/>
    </g>
    <g id="text_25">
     <!-- Africa -->
     <g style="fill: #262626" transform="translate(145 150.469063) scale(0.1 -0.1)">
      <defs>
       <path id="DejaVuSans-66" d="M 2375 4863 
L 2375 4384 
L 1825 4384 
Q 1516 4384 1395 4259 
Q 1275 4134 1275 3809 
L 1275 3500 
L 2222 3500 
L 2222 3053 
L 1275 3053 
L 1275 0 
L 697 0 
L 697 3053 
L 147 3053 
L 147 3500 
L 697 3500 
L 697 3744 
Q 697 4328 969 4595 
Q 1241 4863 1831 4863 
L 2375 4863 
z
" transform="scale(0.015625)"/>
      </defs>
      <use xlink:href="#DejaVuSans-41"/>
      <use xlink:href="#DejaVuSans-66" x="64.783203"/>
      <use xlink:href="#DejaVuSans-72" x="99.988281"/>
      <use xlink:href="#DejaVuSans-69" x="141.101562"/>
      <use xlink:href="#DejaVuSans-63" x="168.884766"/>
      <use xlink:href="#DejaVuSans-61" x="223.865234"/>
     </g>
    </g>
    <g id="line2d_29">
     <path d="M 117 161.647188 
L 127 161.647188 
L 137 161.647188 
" style="fill: none; stroke: #c85200; stroke-width: 2; stroke-linecap: round"/>
    </g>
    <g id="text_26">
     <!-- Latin America and the Caribbean -->
     <g style="fill: #262626" transform="translate(145 165.147188) scale(0.1 -0.1)">
      <defs>
       <path id="DejaVuSans-4c" d="M 628 4666 
L 1259 4666 
L 1259 531 
L 3531 531 
L 3531 0 
L 628 0 
L 628 4666 
z
" transform="scale(0.015625)"/>
       <path id="DejaVuSans-62" d="M 3116 1747 
Q 3116 2381 2855 2742 
Q 2594 3103 2138 3103 
Q 1681 3103 1420 2742 
Q 1159 2381 1159 1747 
Q 1159 1113 1420 752 
Q 1681 391 2138 391 
Q 2594 391 2855 752 
Q 3116 1113 3116 1747 
z
M 1159 2969 
Q 1341 3281 1617 3432 
Q 1894 3584 2278 3584 
Q 2916 3584 3314 3078 
Q 3713 2572 3713 1747 
Q 3713 922 3314 415 
Q 2916 -91 2278 -91 
Q 1894 -91 1617 61 
Q 1341 213 1159 525 
L 1159 0 
L 581 0 
L 581 4863 
L 1159 4863 
L 1159 2969 
z
" transform="scale(0.015625)"/>
      </defs>
      <use xlink:href="#DejaVuSans-4c"/>
      <use xlink:href="#DejaVuSans-61" x="55.712891"/>
      <use xlink:href="#DejaVuSans-74" x="116.992188"/>
      <use xlink:href="#DejaVuSans-69" x="156.201172"/>
      <use xlink:href="#DejaVuSans-6e" x="183.984375"/>
      <use xlink:href="#DejaVuSans-20" x="247.363281"/>
      <use xlink:href="#DejaVuSans-41" x="279.150391"/>
      <use xlink:href="#DejaVuSans-6d" x="347.558594"/>
      <use xlink:href="#DejaVuSans-65" x="444.970703"/>
      <use xlink:href="#DejaVuSans-72" x="506.494141"/>
      <use xlink:href="#DejaVuSans-69" x="547.607422"/>
      <use xlink:href="#DejaVuSans-63" x="575.390625"/>
      <use xlink:href="#DejaVuSans-61" x="630.371094"/>
      <use xlink:href="#DejaVuSans-20" x="691.650391"/>
      <use xlink:href="#DejaVuSans-61" x="723.4375"/>
      <use xlink:href="#DejaVuSans-6e" x="784.716797"/>
      <use xlink:href="#DejaVuSans-64" x="848.095703"/>
      <use xlink:href="#DejaVuSans-20" x="911.572266"/>
      <use xlink:href="#DejaVuSans-74" x="943.359375"/>
      <use xlink:href="#DejaVuSans-68" x="982.568359"/>
      <use xlink:href="#DejaVuSans-65" x="1045.947266"/>
      <use xlink:href="#DejaVuSans-20" x="1107.470703"/>
      <use xlink:href="#DejaVuSans-43" x="1139.257812"/>
      <use xlink:href="#DejaVuSans-61" x="1209.082031"/>
      <use xlink:href="#DejaVuSans-72" x="1270.361328"/>
      <use xlink:href="#DejaVuSans-69" x="1311.474609"/>
      <use xlink:href="#DejaVuSans-62" x="1339.257812"/>
      <use xlink:href="#DejaVuSans-62" x="1402.734375"/>
      <use xlink:href="#DejaVuSans-65" x="1466.210938"/>
      <use xlink:href="#DejaVuSans-61" x="1527.734375"/>
      <use xlink:href="#DejaVuSans-6e" x="1589.013672"/>
     </g>
    </g>
    <g id="line2d_30">
     <path d="M 117 176.325313 
L 127 176.325313 
L 137 176.325313 
" style="fill: none; stroke: #898989; stroke-width: 2; stroke-linecap: round"/>
    </g>
    <g id="text_27">
     <!-- Australia and New Zealand -->
     <g style="fill: #262626" transform="translate(145 179.825313) scale(0.1 -0.1)">
      <defs>
       <path id="DejaVuSans-77" d="M 269 3500 
L 844 3500 
L 1563 769 
L 2278 3500 
L 2956 3500 
L 3675 769 
L 4391 3500 
L 4966 3500 
L 4050 0 
L 3372 0 
L 2619 2869 
L 1863 0 
L 1184 0 
L 269 3500 
z
" transform="scale(0.015625)"/>
       <path id="DejaVuSans-5a" d="M 359 4666 
L 4025 4666 
L 4025 4184 
L 1075 531 
L 4097 531 
L 4097 0 
L 288 0 
L 288 481 
L 3238 4134 
L 359 4134 
L 359 4666 
z
" transform="scale(0.015625)"/>
      </defs>
      <use xlink:href="#DejaVuSans-41"/>
      <use xlink:href="#DejaVuSans-75" x="68.408203"/>
      <use xlink:href="#DejaVuSans-73" x="131.787109"/>
      <use xlink:href="#DejaVuSans-74" x="183.886719"/>
      <use xlink:href="#DejaVuSans-72" x="223.095703"/>
      <use xlink:href="#DejaVuSans-61" x="264.208984"/>
      <use xlink:href="#DejaVuSans-6c" x="325.488281"/>
      <use xlink:href="#DejaVuSans-69" x="353.271484"/>
      <use xlink:href="#DejaVuSans-61" x="381.054688"/>
      <use xlink:href="#DejaVuSans-20" x="442.333984"/>
      <use xlink:href="#DejaVuSans-61" x="474.121094"/>
      <use xlink:href="#DejaVuSans-6e" x="535.400391"/>
      <use xlink:href="#DejaVuSans-64" x="598.779297"/>
      <use xlink:href="#DejaVuSans-20" x="662.255859"/>
      <use xlink:href="#DejaVuSans-4e" x="694.042969"/>
      <use xlink:href="#DejaVuSans-65" x="768.847656"/>
      <use xlink:href="#DejaVuSans-77" x="830.371094"/>
      <use xlink:href="#DejaVuSans-20" x="912.158203"/>
      <use xlink:href="#DejaVuSans-5a" x="943.945312"/>
      <use xlink:href="#DejaVuSans-65" x="1012.451172"/>
      <use xlink:href="#DejaVuSans-61" x="1073.974609"/>
      <use xlink:href="#DejaVuSans-6c" x="1135.253906"/>
      <use xlink:href="#DejaVuSans-61" x="1163.037109"/>
      <use xlink:href="#DejaVuSans-6e" x="1224.316406"/>
      <use xlink:href="#DejaVuSans-64" x="1287.695312"/>
     </g>
    </g>
   </g>
  </g>
 </g>
 <defs>
  <clipPath id="p654df26522">
   <rect x="108" y="60.48" width="669.6" height="388.08"/>
  </clipPath>
 </defs>
</svg>
