<?xml version="1.0" encoding="utf-8" standalone="no"?>
<!DOCTYPE svg PUBLIC "-//W3C//DTD SVG 1.1//EN"
  "http://www.w3.org/Graphics/SVG/1.1/DTD/svg11.dtd">
<svg xmlns:xlink="http://www.w3.org/1999/xlink" width="864pt" height="504pt" viewBox="0 0 864 504" xmlns="http://www.w3.org/2000/svg" version="1.1">
 <metadata>
  <rdf:RDF xmlns:dc="http://purl.org/dc/elements/1.1/" xmlns:cc="http://creativecommons.org/ns#" xmlns:rdf="http://www.w3.org/1999/02/22-rdf-syntax-ns#">
   <cc:Work>
    <dc:type rdf:resource="http://purl.org/dc/dcmitype/StillImage"/>
    <dc:date>2024-03-06T23:00:41.918468</dc:date>
    <dc:format>image/svg+xml</dc:format>
    <dc:creator>
     <cc:Agent>
      <dc:title>Matplotlib v3.8.3, https://matplotlib.org/</dc:title>
     </cc:Agent>
    </dc:creator>
   </cc:Work>
  </rdf:RDF>
 </metadata>
 <defs>
  <style type="text/css">*{stroke-linejoin: round; stroke-linecap: butt}</style>
 </defs>
 <g id="figure_1">
  <g id="patch_1">
   <path d="M 0 504 
L 864 504 
L 864 0 
L 0 0 
z
" style="fill: #ffffff"/>
  </g>
  <g id="axes_1">
   <g id="patch_2">
    <path d="M 108 448.56 
L 777.6 448.56 
L 777.6 60.48 
L 108 60.48 
z
" style="fill: #ffffff"/>
   </g>
   <g id="matplotlib.axis_1">
    <g id="xtick_1">
     <g id="line2d_1">
      <path d="M 138.436364 448.56 
L 138.436364 60.48 
" clip-path="url(#p0f895b4172)" style="fill: none; stroke: #cccccc; stroke-width: 0.8; stroke-linecap: round"/>
     </g>
     <g id="text_1">
      <!-- 2010 -->
      <g style="fill: #262626" transform="translate(120.621364 466.197812) scale(0.14 -0.14)">
       <defs>
        <path id="DejaVuSans-32" d="M 1228 531 
L 3431 531 
L 3431 0 
L 469 0 
L 469 531 
Q 828 903 1448 1529 
Q 2069 2156 2228 2338 
Q 2531 2678 2651 2914 
Q 2772 3150 2772 3378 
Q 2772 3750 2511 3984 
Q 2250 4219 1831 4219 
Q 1534 4219 1204 4116 
Q 875 4013 500 3803 
L 500 4441 
Q 881 4594 1212 4672 
Q 1544 4750 1819 4750 
Q 2544 4750 2975 4387 
Q 3406 4025 3406 3419 
Q 3406 3131 3298 2873 
Q 3191 2616 2906 2266 
Q 2828 2175 2409 1742 
Q 1991 1309 1228 531 
z
" transform="scale(0.015625)"/>
        <path id="DejaVuSans-30" d="M 2034 4250 
Q 1547 4250 1301 3770 
Q 1056 3291 1056 2328 
Q 1056 1369 1301 889 
Q 1547 409 2034 409 
Q 2525 409 2770 889 
Q 3016 1369 3016 2328 
Q 3016 3291 2770 3770 
Q 2525 4250 2034 4250 
z
M 2034 4750 
Q 2819 4750 3233 4129 
Q 3647 3509 3647 2328 
Q 3647 1150 3233 529 
Q 2819 -91 2034 -91 
Q 1250 -91 836 529 
Q 422 1150 422 2328 
Q 422 3509 836 4129 
Q 1250 4750 2034 4750 
z
" transform="scale(0.015625)"/>
        <path id="DejaVuSans-31" d="M 794 531 
L 1825 531 
L 1825 4091 
L 703 3866 
L 703 4441 
L 1819 4666 
L 2450 4666 
L 2450 531 
L 3481 531 
L 3481 0 
L 794 0 
L 794 531 
z
" transform="scale(0.015625)"/>
       </defs>
       <use xlink:href="#DejaVuSans-32"/>
       <use xlink:href="#DejaVuSans-30" x="63.623047"/>
       <use xlink:href="#DejaVuSans-31" x="127.246094"/>
       <use xlink:href="#DejaVuSans-30" x="190.869141"/>
      </g>
     </g>
    </g>
    <g id="xtick_2">
     <g id="line2d_2">
      <path d="M 233.876851 448.56 
L 233.876851 60.48 
" clip-path="url(#p0f895b4172)" style="fill: none; stroke: #cccccc; stroke-width: 0.8; stroke-linecap: round"/>
     </g>
     <g id="text_2">
      <!-- 2012 -->
      <g style="fill: #262626" transform="translate(216.061851 466.197812) scale(0.14 -0.14)">
       <use xlink:href="#DejaVuSans-32"/>
       <use xlink:href="#DejaVuSans-30" x="63.623047"/>
       <use xlink:href="#DejaVuSans-31" x="127.246094"/>
       <use xlink:href="#DejaVuSans-32" x="190.869141"/>
      </g>
     </g>
    </g>
    <g id="xtick_3">
     <g id="line2d_3">
      <path d="M 329.448079 448.56 
L 329.448079 60.48 
" clip-path="url(#p0f895b4172)" style="fill: none; stroke: #cccccc; stroke-width: 0.8; stroke-linecap: round"/>
     </g>
     <g id="text_3">
      <!-- 2014 -->
      <g style="fill: #262626" transform="translate(311.633079 466.197812) scale(0.14 -0.14)">
       <defs>
        <path id="DejaVuSans-34" d="M 2419 4116 
L 825 1625 
L 2419 1625 
L 2419 4116 
z
M 2253 4666 
L 3047 4666 
L 3047 1625 
L 3713 1625 
L 3713 1100 
L 3047 1100 
L 3047 0 
L 2419 0 
L 2419 1100 
L 313 1100 
L 313 1709 
L 2253 4666 
z
" transform="scale(0.015625)"/>
       </defs>
       <use xlink:href="#DejaVuSans-32"/>
       <use xlink:href="#DejaVuSans-30" x="63.623047"/>
       <use xlink:href="#DejaVuSans-31" x="127.246094"/>
       <use xlink:href="#DejaVuSans-34" x="190.869141"/>
      </g>
     </g>
    </g>
    <g id="xtick_4">
     <g id="line2d_4">
      <path d="M 424.888566 448.56 
L 424.888566 60.48 
" clip-path="url(#p0f895b4172)" style="fill: none; stroke: #cccccc; stroke-width: 0.8; stroke-linecap: round"/>
     </g>
     <g id="text_4">
      <!-- 2016 -->
      <g style="fill: #262626" transform="translate(407.073566 466.197812) scale(0.14 -0.14)">
       <defs>
        <path id="DejaVuSans-36" d="M 2113 2584 
Q 1688 2584 1439 2293 
Q 1191 2003 1191 1497 
Q 1191 994 1439 701 
Q 1688 409 2113 409 
Q 2538 409 2786 701 
Q 3034 994 3034 1497 
Q 3034 2003 2786 2293 
Q 2538 2584 2113 2584 
z
M 3366 4563 
L 3366 3988 
Q 3128 4100 2886 4159 
Q 2644 4219 2406 4219 
Q 1781 4219 1451 3797 
Q 1122 3375 1075 2522 
Q 1259 2794 1537 2939 
Q 1816 3084 2150 3084 
Q 2853 3084 3261 2657 
Q 3669 2231 3669 1497 
Q 3669 778 3244 343 
Q 2819 -91 2113 -91 
Q 1303 -91 875 529 
Q 447 1150 447 2328 
Q 447 3434 972 4092 
Q 1497 4750 2381 4750 
Q 2619 4750 2861 4703 
Q 3103 4656 3366 4563 
z
" transform="scale(0.015625)"/>
       </defs>
       <use xlink:href="#DejaVuSans-32"/>
       <use xlink:href="#DejaVuSans-30" x="63.623047"/>
       <use xlink:href="#DejaVuSans-31" x="127.246094"/>
       <use xlink:href="#DejaVuSans-36" x="190.869141"/>
      </g>
     </g>
    </g>
    <g id="xtick_5">
     <g id="line2d_5">
      <path d="M 520.459794 448.56 
L 520.459794 60.48 
" clip-path="url(#p0f895b4172)" style="fill: none; stroke: #cccccc; stroke-width: 0.8; stroke-linecap: round"/>
     </g>
     <g id="text_5">
      <!-- 2018 -->
      <g style="fill: #262626" transform="translate(502.644794 466.197812) scale(0.14 -0.14)">
       <defs>
        <path id="DejaVuSans-38" d="M 2034 2216 
Q 1584 2216 1326 1975 
Q 1069 1734 1069 1313 
Q 1069 891 1326 650 
Q 1584 409 2034 409 
Q 2484 409 2743 651 
Q 3003 894 3003 1313 
Q 3003 1734 2745 1975 
Q 2488 2216 2034 2216 
z
M 1403 2484 
Q 997 2584 770 2862 
Q 544 3141 544 3541 
Q 544 4100 942 4425 
Q 1341 4750 2034 4750 
Q 2731 4750 3128 4425 
Q 3525 4100 3525 3541 
Q 3525 3141 3298 2862 
Q 3072 2584 2669 2484 
Q 3125 2378 3379 2068 
Q 3634 1759 3634 1313 
Q 3634 634 3220 271 
Q 2806 -91 2034 -91 
Q 1263 -91 848 271 
Q 434 634 434 1313 
Q 434 1759 690 2068 
Q 947 2378 1403 2484 
z
M 1172 3481 
Q 1172 3119 1398 2916 
Q 1625 2713 2034 2713 
Q 2441 2713 2670 2916 
Q 2900 3119 2900 3481 
Q 2900 3844 2670 4047 
Q 2441 4250 2034 4250 
Q 1625 4250 1398 4047 
Q 1172 3844 1172 3481 
z
" transform="scale(0.015625)"/>
       </defs>
       <use xlink:href="#DejaVuSans-32"/>
       <use xlink:href="#DejaVuSans-30" x="63.623047"/>
       <use xlink:href="#DejaVuSans-31" x="127.246094"/>
       <use xlink:href="#DejaVuSans-38" x="190.869141"/>
      </g>
     </g>
    </g>
    <g id="xtick_6">
     <g id="line2d_6">
      <path d="M 615.900281 448.56 
L 615.900281 60.48 
" clip-path="url(#p0f895b4172)" style="fill: none; stroke: #cccccc; stroke-width: 0.8; stroke-linecap: round"/>
     </g>
     <g id="text_6">
      <!-- 2020 -->
      <g style="fill: #262626" transform="translate(598.085281 466.197812) scale(0.14 -0.14)">
       <use xlink:href="#DejaVuSans-32"/>
       <use xlink:href="#DejaVuSans-30" x="63.623047"/>
       <use xlink:href="#DejaVuSans-32" x="127.246094"/>
       <use xlink:href="#DejaVuSans-30" x="190.869141"/>
      </g>
     </g>
    </g>
    <g id="xtick_7">
     <g id="line2d_7">
      <path d="M 711.471509 448.56 
L 711.471509 60.48 
" clip-path="url(#p0f895b4172)" style="fill: none; stroke: #cccccc; stroke-width: 0.8; stroke-linecap: round"/>
     </g>
     <g id="text_7">
      <!-- 2022 -->
      <g style="fill: #262626" transform="translate(693.656509 466.197812) scale(0.14 -0.14)">
       <use xlink:href="#DejaVuSans-32"/>
       <use xlink:href="#DejaVuSans-30" x="63.623047"/>
       <use xlink:href="#DejaVuSans-32" x="127.246094"/>
       <use xlink:href="#DejaVuSans-32" x="190.869141"/>
      </g>
     </g>
    </g>
    <g id="text_8">
     <!-- Year -->
     <g style="fill: #262626" transform="translate(422.9675 491.266875) scale(0.16 -0.16)">
      <defs>
       <path id="DejaVuSans-Bold-59" d="M -63 4666 
L 1253 4666 
L 2316 3003 
L 3378 4666 
L 4697 4666 
L 2919 1966 
L 2919 0 
L 1716 0 
L 1716 1966 
L -63 4666 
z
" transform="scale(0.015625)"/>
       <path id="DejaVuSans-Bold-65" d="M 4031 1759 
L 4031 1441 
L 1416 1441 
Q 1456 1047 1700 850 
Q 1944 653 2381 653 
Q 2734 653 3104 758 
Q 3475 863 3866 1075 
L 3866 213 
Q 3469 63 3072 -14 
Q 2675 -91 2278 -91 
Q 1328 -91 801 392 
Q 275 875 275 1747 
Q 275 2603 792 3093 
Q 1309 3584 2216 3584 
Q 3041 3584 3536 3087 
Q 4031 2591 4031 1759 
z
M 2881 2131 
Q 2881 2450 2695 2645 
Q 2509 2841 2209 2841 
Q 1884 2841 1681 2658 
Q 1478 2475 1428 2131 
L 2881 2131 
z
" transform="scale(0.015625)"/>
       <path id="DejaVuSans-Bold-61" d="M 2106 1575 
Q 1756 1575 1579 1456 
Q 1403 1338 1403 1106 
Q 1403 894 1545 773 
Q 1688 653 1941 653 
Q 2256 653 2472 879 
Q 2688 1106 2688 1447 
L 2688 1575 
L 2106 1575 
z
M 3816 1997 
L 3816 0 
L 2688 0 
L 2688 519 
Q 2463 200 2181 54 
Q 1900 -91 1497 -91 
Q 953 -91 614 226 
Q 275 544 275 1050 
Q 275 1666 698 1953 
Q 1122 2241 2028 2241 
L 2688 2241 
L 2688 2328 
Q 2688 2594 2478 2717 
Q 2269 2841 1825 2841 
Q 1466 2841 1156 2769 
Q 847 2697 581 2553 
L 581 3406 
Q 941 3494 1303 3539 
Q 1666 3584 2028 3584 
Q 2975 3584 3395 3211 
Q 3816 2838 3816 1997 
z
" transform="scale(0.015625)"/>
       <path id="DejaVuSans-Bold-72" d="M 3138 2547 
Q 2991 2616 2845 2648 
Q 2700 2681 2553 2681 
Q 2122 2681 1889 2404 
Q 1656 2128 1656 1613 
L 1656 0 
L 538 0 
L 538 3500 
L 1656 3500 
L 1656 2925 
Q 1872 3269 2151 3426 
Q 2431 3584 2822 3584 
Q 2878 3584 2943 3579 
Q 3009 3575 3134 3559 
L 3138 2547 
z
" transform="scale(0.015625)"/>
      </defs>
      <use xlink:href="#DejaVuSans-Bold-59"/>
      <use xlink:href="#DejaVuSans-Bold-65" x="63.287109"/>
      <use xlink:href="#DejaVuSans-Bold-61" x="131.109375"/>
      <use xlink:href="#DejaVuSans-Bold-72" x="198.589844"/>
     </g>
    </g>
   </g>
   <g id="matplotlib.axis_2">
    <g id="ytick_1">
     <g id="line2d_8">
      <path d="M 108 430.92 
L 777.6 430.92 
" clip-path="url(#p0f895b4172)" style="fill: none; stroke: #cccccc; stroke-width: 0.8; stroke-linecap: round"/>
     </g>
     <g id="text_9">
      <!-- 0 -->
      <g style="fill: #262626" transform="translate(92.0925 436.238906) scale(0.14 -0.14)">
       <use xlink:href="#DejaVuSans-30"/>
      </g>
     </g>
    </g>
    <g id="ytick_2">
     <g id="line2d_9">
      <path d="M 108 354.994759 
L 777.6 354.994759 
" clip-path="url(#p0f895b4172)" style="fill: none; stroke: #cccccc; stroke-width: 0.8; stroke-linecap: round"/>
     </g>
     <g id="text_10">
      <!-- 100 -->
      <g style="fill: #262626" transform="translate(74.2775 360.313665) scale(0.14 -0.14)">
       <use xlink:href="#DejaVuSans-31"/>
       <use xlink:href="#DejaVuSans-30" x="63.623047"/>
       <use xlink:href="#DejaVuSans-30" x="127.246094"/>
      </g>
     </g>
    </g>
    <g id="ytick_3">
     <g id="line2d_10">
      <path d="M 108 279.069518 
L 777.6 279.069518 
" clip-path="url(#p0f895b4172)" style="fill: none; stroke: #cccccc; stroke-width: 0.8; stroke-linecap: round"/>
     </g>
     <g id="text_11">
      <!-- 200 -->
      <g style="fill: #262626" transform="translate(74.2775 284.388424) scale(0.14 -0.14)">
       <use xlink:href="#DejaVuSans-32"/>
       <use xlink:href="#DejaVuSans-30" x="63.623047"/>
       <use xlink:href="#DejaVuSans-30" x="127.246094"/>
      </g>
     </g>
    </g>
    <g id="ytick_4">
     <g id="line2d_11">
      <path d="M 108 203.144277 
L 777.6 203.144277 
" clip-path="url(#p0f895b4172)" style="fill: none; stroke: #cccccc; stroke-width: 0.8; stroke-linecap: round"/>
     </g>
     <g id="text_12">
      <!-- 300 -->
      <g style="fill: #262626" transform="translate(74.2775 208.463183) scale(0.14 -0.14)">
       <defs>
        <path id="DejaVuSans-33" d="M 2597 2516 
Q 3050 2419 3304 2112 
Q 3559 1806 3559 1356 
Q 3559 666 3084 287 
Q 2609 -91 1734 -91 
Q 1441 -91 1130 -33 
Q 819 25 488 141 
L 488 750 
Q 750 597 1062 519 
Q 1375 441 1716 441 
Q 2309 441 2620 675 
Q 2931 909 2931 1356 
Q 2931 1769 2642 2001 
Q 2353 2234 1838 2234 
L 1294 2234 
L 1294 2753 
L 1863 2753 
Q 2328 2753 2575 2939 
Q 2822 3125 2822 3475 
Q 2822 3834 2567 4026 
Q 2313 4219 1838 4219 
Q 1578 4219 1281 4162 
Q 984 4106 628 3988 
L 628 4550 
Q 988 4650 1302 4700 
Q 1616 4750 1894 4750 
Q 2613 4750 3031 4423 
Q 3450 4097 3450 3541 
Q 3450 3153 3228 2886 
Q 3006 2619 2597 2516 
z
" transform="scale(0.015625)"/>
       </defs>
       <use xlink:href="#DejaVuSans-33"/>
       <use xlink:href="#DejaVuSans-30" x="63.623047"/>
       <use xlink:href="#DejaVuSans-30" x="127.246094"/>
      </g>
     </g>
    </g>
    <g id="ytick_5">
     <g id="line2d_12">
      <path d="M 108 127.219035 
L 777.6 127.219035 
" clip-path="url(#p0f895b4172)" style="fill: none; stroke: #cccccc; stroke-width: 0.8; stroke-linecap: round"/>
     </g>
     <g id="text_13">
      <!-- 400 -->
      <g style="fill: #262626" transform="translate(74.2775 132.537942) scale(0.14 -0.14)">
       <use xlink:href="#DejaVuSans-34"/>
       <use xlink:href="#DejaVuSans-30" x="63.623047"/>
       <use xlink:href="#DejaVuSans-30" x="127.246094"/>
      </g>
     </g>
    </g>
    <g id="text_14">
     <!-- Metric Tons of CO2 [Tons/Cap.] -->
     <g style="fill: #262626" transform="translate(60.95 392.48625) rotate(-90) scale(0.16 -0.16)">
      <defs>
       <path id="DejaVuSans-Bold-4d" d="M 588 4666 
L 2119 4666 
L 3181 2169 
L 4250 4666 
L 5778 4666 
L 5778 0 
L 4641 0 
L 4641 3413 
L 3566 897 
L 2803 897 
L 1728 3413 
L 1728 0 
L 588 0 
L 588 4666 
z
" transform="scale(0.015625)"/>
       <path id="DejaVuSans-Bold-74" d="M 1759 4494 
L 1759 3500 
L 2913 3500 
L 2913 2700 
L 1759 2700 
L 1759 1216 
Q 1759 972 1856 886 
Q 1953 800 2241 800 
L 2816 800 
L 2816 0 
L 1856 0 
Q 1194 0 917 276 
Q 641 553 641 1216 
L 641 2700 
L 84 2700 
L 84 3500 
L 641 3500 
L 641 4494 
L 1759 4494 
z
" transform="scale(0.015625)"/>
       <path id="DejaVuSans-Bold-69" d="M 538 3500 
L 1656 3500 
L 1656 0 
L 538 0 
L 538 3500 
z
M 538 4863 
L 1656 4863 
L 1656 3950 
L 538 3950 
L 538 4863 
z
" transform="scale(0.015625)"/>
       <path id="DejaVuSans-Bold-63" d="M 3366 3391 
L 3366 2478 
Q 3138 2634 2908 2709 
Q 2678 2784 2431 2784 
Q 1963 2784 1702 2511 
Q 1441 2238 1441 1747 
Q 1441 1256 1702 982 
Q 1963 709 2431 709 
Q 2694 709 2930 787 
Q 3166 866 3366 1019 
L 3366 103 
Q 3103 6 2833 -42 
Q 2563 -91 2291 -91 
Q 1344 -91 809 395 
Q 275 881 275 1747 
Q 275 2613 809 3098 
Q 1344 3584 2291 3584 
Q 2566 3584 2833 3536 
Q 3100 3488 3366 3391 
z
" transform="scale(0.015625)"/>
       <path id="DejaVuSans-Bold-20" transform="scale(0.015625)"/>
       <path id="DejaVuSans-Bold-54" d="M 31 4666 
L 4331 4666 
L 4331 3756 
L 2784 3756 
L 2784 0 
L 1581 0 
L 1581 3756 
L 31 3756 
L 31 4666 
z
" transform="scale(0.015625)"/>
       <path id="DejaVuSans-Bold-6f" d="M 2203 2784 
Q 1831 2784 1636 2517 
Q 1441 2250 1441 1747 
Q 1441 1244 1636 976 
Q 1831 709 2203 709 
Q 2569 709 2762 976 
Q 2956 1244 2956 1747 
Q 2956 2250 2762 2517 
Q 2569 2784 2203 2784 
z
M 2203 3584 
Q 3106 3584 3614 3096 
Q 4122 2609 4122 1747 
Q 4122 884 3614 396 
Q 3106 -91 2203 -91 
Q 1297 -91 786 396 
Q 275 884 275 1747 
Q 275 2609 786 3096 
Q 1297 3584 2203 3584 
z
" transform="scale(0.015625)"/>
       <path id="DejaVuSans-Bold-6e" d="M 4056 2131 
L 4056 0 
L 2931 0 
L 2931 347 
L 2931 1631 
Q 2931 2084 2911 2256 
Q 2891 2428 2841 2509 
Q 2775 2619 2662 2680 
Q 2550 2741 2406 2741 
Q 2056 2741 1856 2470 
Q 1656 2200 1656 1722 
L 1656 0 
L 538 0 
L 538 3500 
L 1656 3500 
L 1656 2988 
Q 1909 3294 2193 3439 
Q 2478 3584 2822 3584 
Q 3428 3584 3742 3212 
Q 4056 2841 4056 2131 
z
" transform="scale(0.015625)"/>
       <path id="DejaVuSans-Bold-73" d="M 3272 3391 
L 3272 2541 
Q 2913 2691 2578 2766 
Q 2244 2841 1947 2841 
Q 1628 2841 1473 2761 
Q 1319 2681 1319 2516 
Q 1319 2381 1436 2309 
Q 1553 2238 1856 2203 
L 2053 2175 
Q 2913 2066 3209 1816 
Q 3506 1566 3506 1031 
Q 3506 472 3093 190 
Q 2681 -91 1863 -91 
Q 1516 -91 1145 -36 
Q 775 19 384 128 
L 384 978 
Q 719 816 1070 734 
Q 1422 653 1784 653 
Q 2113 653 2278 743 
Q 2444 834 2444 1013 
Q 2444 1163 2330 1236 
Q 2216 1309 1875 1350 
L 1678 1375 
Q 931 1469 631 1722 
Q 331 1975 331 2491 
Q 331 3047 712 3315 
Q 1094 3584 1881 3584 
Q 2191 3584 2531 3537 
Q 2872 3491 3272 3391 
z
" transform="scale(0.015625)"/>
       <path id="DejaVuSans-Bold-66" d="M 2841 4863 
L 2841 4128 
L 2222 4128 
Q 1984 4128 1890 4042 
Q 1797 3956 1797 3744 
L 1797 3500 
L 2753 3500 
L 2753 2700 
L 1797 2700 
L 1797 0 
L 678 0 
L 678 2700 
L 122 2700 
L 122 3500 
L 678 3500 
L 678 3744 
Q 678 4316 997 4589 
Q 1316 4863 1984 4863 
L 2841 4863 
z
" transform="scale(0.015625)"/>
       <path id="DejaVuSans-Bold-43" d="M 4288 256 
Q 3956 84 3597 -3 
Q 3238 -91 2847 -91 
Q 1681 -91 1000 561 
Q 319 1213 319 2328 
Q 319 3447 1000 4098 
Q 1681 4750 2847 4750 
Q 3238 4750 3597 4662 
Q 3956 4575 4288 4403 
L 4288 3438 
Q 3953 3666 3628 3772 
Q 3303 3878 2944 3878 
Q 2300 3878 1931 3465 
Q 1563 3053 1563 2328 
Q 1563 1606 1931 1193 
Q 2300 781 2944 781 
Q 3303 781 3628 887 
Q 3953 994 4288 1222 
L 4288 256 
z
" transform="scale(0.015625)"/>
       <path id="DejaVuSans-Bold-4f" d="M 2719 3878 
Q 2169 3878 1866 3472 
Q 1563 3066 1563 2328 
Q 1563 1594 1866 1187 
Q 2169 781 2719 781 
Q 3272 781 3575 1187 
Q 3878 1594 3878 2328 
Q 3878 3066 3575 3472 
Q 3272 3878 2719 3878 
z
M 2719 4750 
Q 3844 4750 4481 4106 
Q 5119 3463 5119 2328 
Q 5119 1197 4481 553 
Q 3844 -91 2719 -91 
Q 1597 -91 958 553 
Q 319 1197 319 2328 
Q 319 3463 958 4106 
Q 1597 4750 2719 4750 
z
" transform="scale(0.015625)"/>
       <path id="DejaVuSans-Bold-32" d="M 1844 884 
L 3897 884 
L 3897 0 
L 506 0 
L 506 884 
L 2209 2388 
Q 2438 2594 2547 2791 
Q 2656 2988 2656 3200 
Q 2656 3528 2436 3728 
Q 2216 3928 1850 3928 
Q 1569 3928 1234 3808 
Q 900 3688 519 3450 
L 519 4475 
Q 925 4609 1322 4679 
Q 1719 4750 2100 4750 
Q 2938 4750 3402 4381 
Q 3866 4013 3866 3353 
Q 3866 2972 3669 2642 
Q 3472 2313 2841 1759 
L 1844 884 
z
" transform="scale(0.015625)"/>
       <path id="DejaVuSans-Bold-5b" d="M 550 4863 
L 2491 4863 
L 2491 4159 
L 1613 4159 
L 1613 -141 
L 2491 -141 
L 2491 -844 
L 550 -844 
L 550 4863 
z
" transform="scale(0.015625)"/>
       <path id="DejaVuSans-Bold-2f" d="M 1644 4666 
L 2338 4666 
L 691 -594 
L 0 -594 
L 1644 4666 
z
" transform="scale(0.015625)"/>
       <path id="DejaVuSans-Bold-70" d="M 1656 506 
L 1656 -1331 
L 538 -1331 
L 538 3500 
L 1656 3500 
L 1656 2988 
Q 1888 3294 2169 3439 
Q 2450 3584 2816 3584 
Q 3463 3584 3878 3070 
Q 4294 2556 4294 1747 
Q 4294 938 3878 423 
Q 3463 -91 2816 -91 
Q 2450 -91 2169 54 
Q 1888 200 1656 506 
z
M 2400 2772 
Q 2041 2772 1848 2508 
Q 1656 2244 1656 1747 
Q 1656 1250 1848 986 
Q 2041 722 2400 722 
Q 2759 722 2948 984 
Q 3138 1247 3138 1747 
Q 3138 2247 2948 2509 
Q 2759 2772 2400 2772 
z
" transform="scale(0.015625)"/>
       <path id="DejaVuSans-Bold-2e" d="M 653 1209 
L 1778 1209 
L 1778 0 
L 653 0 
L 653 1209 
z
" transform="scale(0.015625)"/>
       <path id="DejaVuSans-Bold-5d" d="M 2375 -844 
L 434 -844 
L 434 -141 
L 1313 -141 
L 1313 4159 
L 434 4159 
L 434 4863 
L 2375 4863 
L 2375 -844 
z
" transform="scale(0.015625)"/>
      </defs>
      <use xlink:href="#DejaVuSans-Bold-4d"/>
      <use xlink:href="#DejaVuSans-Bold-65" x="99.511719"/>
      <use xlink:href="#DejaVuSans-Bold-74" x="167.333984"/>
      <use xlink:href="#DejaVuSans-Bold-72" x="215.136719"/>
      <use xlink:href="#DejaVuSans-Bold-69" x="264.453125"/>
      <use xlink:href="#DejaVuSans-Bold-63" x="298.730469"/>
      <use xlink:href="#DejaVuSans-Bold-20" x="358.007812"/>
      <use xlink:href="#DejaVuSans-Bold-54" x="392.822266"/>
      <use xlink:href="#DejaVuSans-Bold-6f" x="447.785156"/>
      <use xlink:href="#DejaVuSans-Bold-6e" x="516.486328"/>
      <use xlink:href="#DejaVuSans-Bold-73" x="587.677734"/>
      <use xlink:href="#DejaVuSans-Bold-20" x="647.199219"/>
      <use xlink:href="#DejaVuSans-Bold-6f" x="682.013672"/>
      <use xlink:href="#DejaVuSans-Bold-66" x="750.714844"/>
      <use xlink:href="#DejaVuSans-Bold-20" x="794.220703"/>
      <use xlink:href="#DejaVuSans-Bold-43" x="829.035156"/>
      <use xlink:href="#DejaVuSans-Bold-4f" x="902.423828"/>
      <use xlink:href="#DejaVuSans-Bold-32" x="987.433594"/>
      <use xlink:href="#DejaVuSans-Bold-20" x="1057.013672"/>
      <use xlink:href="#DejaVuSans-Bold-5b" x="1091.828125"/>
      <use xlink:href="#DejaVuSans-Bold-54" x="1137.53125"/>
      <use xlink:href="#DejaVuSans-Bold-6f" x="1192.494141"/>
      <use xlink:href="#DejaVuSans-Bold-6e" x="1261.195312"/>
      <use xlink:href="#DejaVuSans-Bold-73" x="1332.386719"/>
      <use xlink:href="#DejaVuSans-Bold-2f" x="1391.908203"/>
      <use xlink:href="#DejaVuSans-Bold-43" x="1428.431641"/>
      <use xlink:href="#DejaVuSans-Bold-61" x="1501.820312"/>
      <use xlink:href="#DejaVuSans-Bold-70" x="1569.300781"/>
      <use xlink:href="#DejaVuSans-Bold-2e" x="1640.882812"/>
      <use xlink:href="#DejaVuSans-Bold-5d" x="1678.871094"/>
     </g>
    </g>
   </g>
   <g id="PolyCollection_1">
    <defs>
     <path id="m61fddd9c8d" d="M 138.436364 -424.133444 
L 138.436364 -128.853157 
L 150.202999 -123.915702 
L 162.100375 -124.100666 
L 174.128491 -129.609204 
L 186.156607 -133.320902 
L 197.923243 -126.225741 
L 209.820619 -126.530545 
L 221.848735 -131.360629 
L 233.876851 -135.038447 
L 245.774227 -126.770736 
L 257.671603 -126.862284 
L 269.699719 -132.859864 
L 281.727835 -135.21401 
L 293.49447 -128.461655 
L 305.391846 -128.20677 
L 317.419963 -133.413389 
L 329.448079 -135.475195 
L 341.214714 -128.235858 
L 353.11209 -129.271962 
L 365.140206 -134.79236 
L 377.168322 -134.51184 
L 388.934958 -127.979546 
L 400.832334 -128.582995 
L 412.86045 -134.056015 
L 424.888566 -132.832681 
L 436.785942 -126.742517 
L 448.683318 -126.80692 
L 460.711434 -132.897572 
L 472.73955 -134.079938 
L 484.506186 -127.779679 
L 496.403561 -127.908364 
L 508.431678 -133.139063 
L 520.459794 -135.862127 
L 532.226429 -129.282518 
L 544.123805 -129.955419 
L 556.151921 -133.44344 
L 568.180037 -135.386221 
L 579.946673 -129.581205 
L 591.844049 -129.611113 
L 603.872165 -134.989668 
L 615.900281 -133.891079 
L 627.797657 -125.912183 
L 639.695033 -129.938799 
L 651.723149 -135.700033 
L 663.751265 -137.813703 
L 675.517901 -130.595544 
L 687.415276 -130.280728 
L 699.443393 -136.090846 
L 711.471509 -139.480426 
L 723.238144 -131.248885 
L 735.13552 -131.429528 
L 747.163636 -135.492397 
L 747.163636 -380.662471 
L 747.163636 -380.662471 
L 735.13552 -357.930545 
L 723.238144 -357.836323 
L 711.471509 -391.829859 
L 699.443393 -384.631466 
L 687.415276 -355.639216 
L 675.517901 -356.355288 
L 663.751265 -387.868299 
L 651.723149 -379.253401 
L 639.695033 -351.867408 
L 627.797657 -332.900631 
L 615.900281 -385.208689 
L 603.872165 -392.542516 
L 591.844049 -369.083562 
L 579.946673 -367.319223 
L 568.180037 -402.262603 
L 556.151921 -401.212588 
L 544.123805 -372.444488 
L 532.226429 -371.360353 
L 520.459794 -407.915415 
L 508.431678 -399.496813 
L 496.403561 -372.82211 
L 484.506186 -372.060893 
L 472.73955 -402.516022 
L 460.711434 -401.947118 
L 448.683318 -372.156568 
L 436.785942 -370.580442 
L 424.888566 -401.033884 
L 412.86045 -402.496564 
L 400.832334 -378.32718 
L 388.934958 -374.906377 
L 377.168322 -410.379717 
L 365.140206 -409.695995 
L 353.11209 -380.058838 
L 341.214714 -378.83657 
L 329.448079 -415.410018 
L 317.419963 -409.656759 
L 305.391846 -383.284429 
L 293.49447 -385.476073 
L 281.727835 -421.724025 
L 269.699719 -414.822231 
L 257.671603 -386.22244 
L 245.774227 -386.067753 
L 233.876851 -422.02815 
L 221.848735 -414.584876 
L 209.820619 -389.215002 
L 197.923243 -389.588298 
L 186.156607 -425.88 
L 174.128491 -420.200709 
L 162.100375 -390.82451 
L 150.202999 -390.080186 
L 138.436364 -424.133444 
z
" style="stroke: #ff0000; stroke-opacity: 0.1"/>
    </defs>
    <g clip-path="url(#p0f895b4172)">
     <use xlink:href="#m61fddd9c8d" x="0" y="504" style="fill: #ff0000; fill-opacity: 0.1; stroke: #ff0000; stroke-opacity: 0.1"/>
    </g>
   </g>
   <g id="PolyCollection_2">
    <defs>
     <path id="macbbe58929" d="M 138.436364 -128.853157 
L 138.436364 -73.08 
L 150.202999 -73.08 
L 162.100375 -73.08 
L 174.128491 -73.08 
L 186.156607 -73.08 
L 197.923243 -73.08 
L 209.820619 -73.08 
L 221.848735 -73.08 
L 233.876851 -73.08 
L 245.774227 -73.08 
L 257.671603 -73.08 
L 269.699719 -73.08 
L 281.727835 -73.08 
L 293.49447 -73.08 
L 305.391846 -73.08 
L 317.419963 -73.08 
L 329.448079 -73.08 
L 341.214714 -73.08 
L 353.11209 -73.08 
L 365.140206 -73.08 
L 377.168322 -73.08 
L 388.934958 -73.08 
L 400.832334 -73.08 
L 412.86045 -73.08 
L 424.888566 -73.08 
L 436.785942 -73.08 
L 448.683318 -73.08 
L 460.711434 -73.08 
L 472.73955 -73.08 
L 484.506186 -73.08 
L 496.403561 -73.08 
L 508.431678 -73.08 
L 520.459794 -73.08 
L 532.226429 -73.08 
L 544.123805 -73.08 
L 556.151921 -73.08 
L 568.180037 -73.08 
L 579.946673 -73.08 
L 591.844049 -73.08 
L 603.872165 -73.08 
L 615.900281 -73.08 
L 627.797657 -73.08 
L 639.695033 -73.08 
L 651.723149 -73.08 
L 663.751265 -73.08 
L 675.517901 -73.08 
L 687.415276 -73.08 
L 699.443393 -73.08 
L 711.471509 -73.08 
L 723.238144 -73.08 
L 735.13552 -73.08 
L 747.163636 -73.08 
L 747.163636 -135.492397 
L 747.163636 -135.492397 
L 735.13552 -131.429528 
L 723.238144 -131.248885 
L 711.471509 -139.480426 
L 699.443393 -136.090846 
L 687.415276 -130.280728 
L 675.517901 -130.595544 
L 663.751265 -137.813703 
L 651.723149 -135.700033 
L 639.695033 -129.938799 
L 627.797657 -125.912183 
L 615.900281 -133.891079 
L 603.872165 -134.989668 
L 591.844049 -129.611113 
L 579.946673 -129.581205 
L 568.180037 -135.386221 
L 556.151921 -133.44344 
L 544.123805 -129.955419 
L 532.226429 -129.282518 
L 520.459794 -135.862127 
L 508.431678 -133.139063 
L 496.403561 -127.908364 
L 484.506186 -127.779679 
L 472.73955 -134.079938 
L 460.711434 -132.897572 
L 448.683318 -126.80692 
L 436.785942 -126.742517 
L 424.888566 -132.832681 
L 412.86045 -134.056015 
L 400.832334 -128.582995 
L 388.934958 -127.979546 
L 377.168322 -134.51184 
L 365.140206 -134.79236 
L 353.11209 -129.271962 
L 341.214714 -128.235858 
L 329.448079 -135.475195 
L 317.419963 -133.413389 
L 305.391846 -128.20677 
L 293.49447 -128.461655 
L 281.727835 -135.21401 
L 269.699719 -132.859864 
L 257.671603 -126.862284 
L 245.774227 -126.770736 
L 233.876851 -135.038447 
L 221.848735 -131.360629 
L 209.820619 -126.530545 
L 197.923243 -126.225741 
L 186.156607 -133.320902 
L 174.128491 -129.609204 
L 162.100375 -124.100666 
L 150.202999 -123.915702 
L 138.436364 -128.853157 
z
" style="stroke: #008000; stroke-opacity: 0.1"/>
    </defs>
    <g clip-path="url(#p0f895b4172)">
     <use xlink:href="#macbbe58929" x="0" y="504" style="fill: #008000; fill-opacity: 0.1; stroke: #008000; stroke-opacity: 0.1"/>
    </g>
   </g>
   <g id="line2d_13">
    <path d="M 138.436364 79.866556 
L 150.202999 113.919814 
L 162.100375 113.17549 
L 174.128491 83.799291 
L 186.156607 78.12 
L 197.923243 114.411702 
L 209.820619 114.784998 
L 221.848735 89.415124 
L 233.876851 81.97185 
L 245.774227 117.932247 
L 257.671603 117.77756 
L 269.699719 89.177769 
L 281.727835 82.275975 
L 293.49447 118.523927 
L 305.391846 120.715571 
L 317.419963 94.343241 
L 329.448079 88.589982 
L 341.214714 125.16343 
L 353.11209 123.941162 
L 365.140206 94.304005 
L 377.168322 93.620283 
L 388.934958 129.093623 
L 400.832334 125.67282 
L 412.86045 101.503436 
L 424.888566 102.966116 
L 436.785942 133.419558 
L 448.683318 131.843432 
L 460.711434 102.052882 
L 472.73955 101.483978 
L 484.506186 131.939107 
L 496.403561 131.17789 
L 508.431678 104.503187 
L 520.459794 96.084585 
L 532.226429 132.639647 
L 544.123805 131.555512 
L 556.151921 102.787412 
L 568.180037 101.737397 
L 579.946673 136.680777 
L 591.844049 134.916438 
L 603.872165 111.457484 
L 615.900281 118.791311 
L 627.797657 171.099369 
L 639.695033 152.132592 
L 651.723149 124.746599 
L 663.751265 116.131701 
L 675.517901 147.644712 
L 687.415276 148.360784 
L 699.443393 119.368534 
L 711.471509 112.170141 
L 723.238144 146.163677 
L 735.13552 146.069455 
L 747.163636 123.337529 
" clip-path="url(#p0f895b4172)" style="fill: none; stroke-dasharray: 7.4,3.2; stroke-dashoffset: 0; stroke: #006ba4; stroke-width: 2"/>
   </g>
   <g id="line2d_14">
    <path d="M 138.436364 323.528273 
L 150.202999 347.263434 
L 162.100375 351.691934 
L 174.128491 326.783101 
L 186.156607 322.931446 
L 197.923243 347.232165 
L 209.820619 351.865394 
L 221.848735 329.885067 
L 233.876851 323.123749 
L 245.774227 348.552015 
L 257.671603 352.942558 
L 269.699719 330.499432 
L 281.727835 326.700054 
L 293.49447 349.959816 
L 305.391846 353.5616 
L 317.419963 334.261669 
L 329.448079 332.789485 
L 341.214714 352.497936 
L 353.11209 356.520312 
L 365.140206 335.232144 
L 377.168322 333.640015 
L 388.934958 353.374299 
L 400.832334 355.992881 
L 412.86045 336.774143 
L 424.888566 334.789406 
L 436.785942 354.449734 
L 448.683318 358.089469 
L 460.711434 333.39146 
L 472.73955 332.526078 
L 484.506186 352.251244 
L 496.403561 356.877877 
L 508.431678 336.5768 
L 520.459794 330.586316 
L 532.226429 354.188392 
L 544.123805 357.380408 
L 556.151921 335.761303 
L 568.180037 334.877489 
L 579.946673 354.598606 
L 591.844049 357.440821 
L 603.872165 339.931182 
L 615.900281 341.326275 
L 627.797657 365.6204 
L 639.695033 363.055439 
L 651.723149 342.959049 
L 663.751265 339.269731 
L 675.517901 358.879729 
L 687.415276 360.953602 
L 699.443393 339.537651 
L 711.471509 338.352949 
L 723.238144 358.245873 
L 735.13552 360.728394 
L 747.163636 342.384744 
" clip-path="url(#p0f895b4172)" style="fill: none; stroke: #ff800e; stroke-width: 2; stroke-linecap: round"/>
   </g>
   <g id="line2d_15">
    <path d="M 138.436364 345.694194 
L 150.202999 353.804197 
L 162.100375 349.474751 
L 174.128491 348.400631 
L 186.156607 347.610655 
L 197.923243 355.788627 
L 209.820619 351.46131 
L 221.848735 352.630494 
L 233.876851 353.503583 
L 245.774227 358.743963 
L 257.671603 353.956147 
L 269.699719 354.197072 
L 281.727835 350.078069 
L 293.49447 357.951643 
L 305.391846 354.518915 
L 317.419963 352.798799 
L 329.448079 348.037244 
L 341.214714 358.616117 
L 353.11209 355.474799 
L 365.140206 353.679792 
L 377.168322 350.391683 
L 388.934958 360.218982 
L 400.832334 356.349676 
L 412.86045 357.484278 
L 424.888566 356.668406 
L 436.785942 362.91276 
L 448.683318 357.08317 
L 460.711434 357.428228 
L 472.73955 357.759009 
L 484.506186 363.126722 
L 496.403561 359.354654 
L 508.431678 357.387458 
L 520.459794 355.084269 
L 532.226429 362.280027 
L 544.123805 358.547929 
L 556.151921 355.746496 
L 568.180037 354.790463 
L 579.946673 364.168384 
L 591.844049 360.311626 
L 603.872165 359.131737 
L 615.900281 361.608256 
L 627.797657 373.906698 
L 639.695033 366.408125 
L 651.723149 365.46154 
L 663.751265 361.162688 
L 675.517901 367.566411 
L 687.415276 363.777737 
L 699.443393 363.61841 
L 711.471509 359.563371 
L 723.238144 367.180662 
L 735.13552 364.087579 
L 747.163636 362.56165 
" clip-path="url(#p0f895b4172)" style="fill: none; stroke: #ababab; stroke-width: 2; stroke-linecap: round"/>
   </g>
   <g id="line2d_16">
    <path d="M 138.436364 375.146843 
L 150.202999 380.084298 
L 162.100375 379.899334 
L 174.128491 374.390796 
L 186.156607 370.679098 
L 197.923243 377.774259 
L 209.820619 377.469455 
L 221.848735 372.639371 
L 233.876851 368.961553 
L 245.774227 377.229264 
L 257.671603 377.137716 
L 269.699719 371.140136 
L 281.727835 368.78599 
L 293.49447 375.538345 
L 305.391846 375.79323 
L 317.419963 370.586611 
L 329.448079 368.524805 
L 341.214714 375.764142 
L 353.11209 374.728038 
L 365.140206 369.20764 
L 377.168322 369.48816 
L 388.934958 376.020454 
L 400.832334 375.417005 
L 412.86045 369.943985 
L 424.888566 371.167319 
L 436.785942 377.257483 
L 448.683318 377.19308 
L 460.711434 371.102428 
L 472.73955 369.920062 
L 484.506186 376.220321 
L 496.403561 376.091636 
L 508.431678 370.860937 
L 520.459794 368.137873 
L 532.226429 374.717482 
L 544.123805 374.044581 
L 556.151921 370.55656 
L 568.180037 368.613779 
L 579.946673 374.418795 
L 591.844049 374.388887 
L 603.872165 369.010332 
L 615.900281 370.108921 
L 627.797657 378.087817 
L 639.695033 374.061201 
L 651.723149 368.299967 
L 663.751265 366.186297 
L 675.517901 373.404456 
L 687.415276 373.719272 
L 699.443393 367.909154 
L 711.471509 364.519574 
L 723.238144 372.751115 
L 735.13552 372.570472 
L 747.163636 368.507603 
" clip-path="url(#p0f895b4172)" style="fill: none; stroke: #595959; stroke-width: 2; stroke-linecap: round"/>
   </g>
   <g id="line2d_17">
    <path d="M 138.436364 373.970216 
L 150.202999 374.621459 
L 162.100375 374.195654 
L 174.128491 374.096876 
L 186.156607 376.215979 
L 197.923243 374.917763 
L 209.820619 375.192818 
L 221.848735 373.487369 
L 233.876851 375.841244 
L 245.774227 375.380282 
L 257.671603 376.319077 
L 269.699719 374.595869 
L 281.727835 376.573815 
L 293.49447 377.125376 
L 305.391846 379.023362 
L 317.419963 376.821888 
L 329.448079 378.875495 
L 341.214714 379.715686 
L 353.11209 379.246837 
L 365.140206 376.931628 
L 377.168322 379.685569 
L 388.934958 379.46898 
L 400.832334 378.694542 
L 412.86045 377.484862 
L 424.888566 378.990964 
L 436.785942 379.338825 
L 448.683318 379.672621 
L 460.711434 378.715997 
L 472.73955 380.109235 
L 484.506186 379.854457 
L 496.403561 379.302201 
L 508.431678 378.35318 
L 520.459794 380.250863 
L 532.226429 380.449122 
L 544.123805 381.113601 
L 556.151921 379.279358 
L 568.180037 381.371747 
L 579.946673 381.806768 
L 591.844049 382.638152 
L 603.872165 380.487638 
L 615.900281 382.586636 
L 627.797657 386.634203 
L 639.695033 384.941176 
L 651.723149 383.371296 
L 663.751265 385.426594 
L 675.517901 384.951335 
L 687.415276 386.971516 
L 699.443393 384.573269 
L 711.471509 386.617857 
L 723.238144 385.489421 
L 735.13552 385.38463 
L 747.163636 384.75481 
" clip-path="url(#p0f895b4172)" style="fill: none; stroke: #5f9ed1; stroke-width: 2; stroke-linecap: round"/>
   </g>
   <g id="line2d_18">
    <path d="M 138.436364 403.790637 
L 150.202999 402.706198 
L 162.100375 402.374863 
L 174.128491 402.893495 
L 186.156607 403.674612 
L 197.923243 403.400009 
L 209.820619 403.595838 
L 221.848735 403.711415 
L 233.876851 403.658746 
L 245.774227 402.986053 
L 257.671603 402.942968 
L 269.699719 402.294222 
L 281.727835 403.714535 
L 293.49447 403.049772 
L 305.391846 403.36163 
L 317.419963 403.035162 
L 329.448079 403.921919 
L 341.214714 403.536611 
L 353.11209 403.154505 
L 365.140206 402.632106 
L 377.168322 404.083234 
L 388.934958 404.631339 
L 400.832334 403.802376 
L 412.86045 402.811046 
L 424.888566 404.543753 
L 436.785942 404.323617 
L 448.683318 404.169149 
L 460.711434 403.594241 
L 472.73955 404.786629 
L 484.506186 404.827435 
L 496.403561 403.971627 
L 508.431678 402.96035 
L 520.459794 404.734931 
L 532.226429 404.769573 
L 544.123805 404.220272 
L 556.151921 403.076617 
L 568.180037 404.980147 
L 579.946673 404.984448 
L 591.844049 404.400901 
L 603.872165 403.630652 
L 615.900281 405.27992 
L 627.797657 408.12205 
L 639.695033 405.851967 
L 651.723149 405.367404 
L 663.751265 406.317752 
L 675.517901 406.007169 
L 687.415276 405.799217 
L 699.443393 404.86523 
L 711.471509 405.666363 
L 723.238144 406.143194 
L 735.13552 406.38537 
L 747.163636 405.976688 
" clip-path="url(#p0f895b4172)" style="fill: none; stroke: #c85200; stroke-width: 2; stroke-linecap: round"/>
   </g>
   <g id="line2d_19">
    <path d="M 138.436364 412.336393 
L 150.202999 410.040228 
L 162.100375 410.138953 
L 174.128491 411.834391 
L 186.156607 411.608209 
L 197.923243 409.898879 
L 209.820619 409.800183 
L 221.848735 411.661408 
L 233.876851 411.482975 
L 245.774227 409.64067 
L 257.671603 409.079095 
L 269.699719 411.051037 
L 281.727835 411.023513 
L 293.49447 409.498975 
L 305.391846 409.056835 
L 317.419963 411.439112 
L 329.448079 411.041035 
L 341.214714 409.632938 
L 353.11209 409.416671 
L 365.140206 411.220694 
L 377.168322 410.931622 
L 388.934958 409.97957 
L 400.832334 410.01634 
L 412.86045 411.605122 
L 424.888566 411.406269 
L 436.785942 409.737138 
L 448.683318 410.235942 
L 460.711434 412.420528 
L 472.73955 410.982965 
L 484.506186 410.258928 
L 496.403561 410.179895 
L 508.431678 412.964462 
L 520.459794 411.890333 
L 532.226429 410.835052 
L 544.123805 410.84872 
L 556.151921 412.967078 
L 568.180037 411.703773 
L 579.946673 411.303775 
L 591.844049 410.336051 
L 603.872165 413.865942 
L 615.900281 412.481303 
L 627.797657 413.328201 
L 639.695033 412.414683 
L 651.723149 413.887343 
L 663.751265 412.368639 
L 675.517901 411.435611 
L 687.415276 411.739439 
L 699.443393 413.46482 
L 711.471509 412.050026 
L 723.238144 410.953413 
L 735.13552 411.51301 
L 747.163636 413.752033 
" clip-path="url(#p0f895b4172)" style="fill: none; stroke: #898989; stroke-width: 2; stroke-linecap: round"/>
   </g>
   <g id="patch_3">
    <path d="M 108 448.56 
L 108 60.48 
" style="fill: none; stroke: #cccccc; stroke-width: 0.8; stroke-linejoin: miter; stroke-linecap: square"/>
   </g>
   <g id="patch_4">
    <path d="M 777.6 448.56 
L 777.6 60.48 
" style="fill: none; stroke: #cccccc; stroke-width: 0.8; stroke-linejoin: miter; stroke-linecap: square"/>
   </g>
   <g id="patch_5">
    <path d="M 108 448.56 
L 777.6 448.56 
" style="fill: none; stroke: #cccccc; stroke-width: 0.8; stroke-linejoin: miter; stroke-linecap: square"/>
   </g>
   <g id="patch_6">
    <path d="M 108 60.48 
L 777.6 60.48 
" style="fill: none; stroke: #cccccc; stroke-width: 0.8; stroke-linejoin: miter; stroke-linecap: square"/>
   </g>
   <g id="text_15">
    <!-- Metric Tons of GHG CO2 Equivalent per Capita Over Time -->
    <g style="fill: #262626" transform="translate(122.253125 40.48) scale(0.2 -0.2)">
     <defs>
      <path id="DejaVuSans-Bold-47" d="M 4781 347 
Q 4331 128 3847 18 
Q 3363 -91 2847 -91 
Q 1681 -91 1000 561 
Q 319 1213 319 2328 
Q 319 3456 1012 4103 
Q 1706 4750 2913 4750 
Q 3378 4750 3804 4662 
Q 4231 4575 4609 4403 
L 4609 3438 
Q 4219 3659 3833 3768 
Q 3447 3878 3059 3878 
Q 2341 3878 1952 3476 
Q 1563 3075 1563 2328 
Q 1563 1588 1938 1184 
Q 2313 781 3003 781 
Q 3191 781 3352 804 
Q 3513 828 3641 878 
L 3641 1784 
L 2906 1784 
L 2906 2591 
L 4781 2591 
L 4781 347 
z
" transform="scale(0.015625)"/>
      <path id="DejaVuSans-Bold-48" d="M 588 4666 
L 1791 4666 
L 1791 2888 
L 3566 2888 
L 3566 4666 
L 4769 4666 
L 4769 0 
L 3566 0 
L 3566 1978 
L 1791 1978 
L 1791 0 
L 588 0 
L 588 4666 
z
" transform="scale(0.015625)"/>
      <path id="DejaVuSans-Bold-45" d="M 588 4666 
L 3834 4666 
L 3834 3756 
L 1791 3756 
L 1791 2888 
L 3713 2888 
L 3713 1978 
L 1791 1978 
L 1791 909 
L 3903 909 
L 3903 0 
L 588 0 
L 588 4666 
z
" transform="scale(0.015625)"/>
      <path id="DejaVuSans-Bold-71" d="M 2181 2772 
Q 1825 2772 1636 2509 
Q 1447 2247 1447 1747 
Q 1447 1247 1636 984 
Q 1825 722 2181 722 
Q 2541 722 2730 984 
Q 2919 1247 2919 1747 
Q 2919 2247 2730 2509 
Q 2541 2772 2181 2772 
z
M 2919 506 
Q 2688 197 2409 53 
Q 2131 -91 1766 -91 
Q 1119 -91 703 423 
Q 288 938 288 1747 
Q 288 2556 703 3067 
Q 1119 3578 1766 3578 
Q 2131 3578 2409 3434 
Q 2688 3291 2919 2981 
L 2919 3500 
L 4044 3500 
L 4044 -1331 
L 2919 -1331 
L 2919 506 
z
" transform="scale(0.015625)"/>
      <path id="DejaVuSans-Bold-75" d="M 500 1363 
L 500 3500 
L 1625 3500 
L 1625 3150 
Q 1625 2866 1622 2436 
Q 1619 2006 1619 1863 
Q 1619 1441 1641 1255 
Q 1663 1069 1716 984 
Q 1784 875 1895 815 
Q 2006 756 2150 756 
Q 2500 756 2700 1025 
Q 2900 1294 2900 1772 
L 2900 3500 
L 4019 3500 
L 4019 0 
L 2900 0 
L 2900 506 
Q 2647 200 2364 54 
Q 2081 -91 1741 -91 
Q 1134 -91 817 281 
Q 500 653 500 1363 
z
" transform="scale(0.015625)"/>
      <path id="DejaVuSans-Bold-76" d="M 97 3500 
L 1216 3500 
L 2088 1081 
L 2956 3500 
L 4078 3500 
L 2700 0 
L 1472 0 
L 97 3500 
z
" transform="scale(0.015625)"/>
      <path id="DejaVuSans-Bold-6c" d="M 538 4863 
L 1656 4863 
L 1656 0 
L 538 0 
L 538 4863 
z
" transform="scale(0.015625)"/>
      <path id="DejaVuSans-Bold-6d" d="M 3781 2919 
Q 3994 3244 4286 3414 
Q 4578 3584 4928 3584 
Q 5531 3584 5847 3212 
Q 6163 2841 6163 2131 
L 6163 0 
L 5038 0 
L 5038 1825 
Q 5041 1866 5042 1909 
Q 5044 1953 5044 2034 
Q 5044 2406 4934 2573 
Q 4825 2741 4581 2741 
Q 4263 2741 4089 2478 
Q 3916 2216 3909 1719 
L 3909 0 
L 2784 0 
L 2784 1825 
Q 2784 2406 2684 2573 
Q 2584 2741 2328 2741 
Q 2006 2741 1831 2477 
Q 1656 2213 1656 1722 
L 1656 0 
L 531 0 
L 531 3500 
L 1656 3500 
L 1656 2988 
Q 1863 3284 2130 3434 
Q 2397 3584 2719 3584 
Q 3081 3584 3359 3409 
Q 3638 3234 3781 2919 
z
" transform="scale(0.015625)"/>
     </defs>
     <use xlink:href="#DejaVuSans-Bold-4d"/>
     <use xlink:href="#DejaVuSans-Bold-65" x="99.511719"/>
     <use xlink:href="#DejaVuSans-Bold-74" x="167.333984"/>
     <use xlink:href="#DejaVuSans-Bold-72" x="215.136719"/>
     <use xlink:href="#DejaVuSans-Bold-69" x="264.453125"/>
     <use xlink:href="#DejaVuSans-Bold-63" x="298.730469"/>
     <use xlink:href="#DejaVuSans-Bold-20" x="358.007812"/>
     <use xlink:href="#DejaVuSans-Bold-54" x="392.822266"/>
     <use xlink:href="#DejaVuSans-Bold-6f" x="447.785156"/>
     <use xlink:href="#DejaVuSans-Bold-6e" x="516.486328"/>
     <use xlink:href="#DejaVuSans-Bold-73" x="587.677734"/>
     <use xlink:href="#DejaVuSans-Bold-20" x="647.199219"/>
     <use xlink:href="#DejaVuSans-Bold-6f" x="682.013672"/>
     <use xlink:href="#DejaVuSans-Bold-66" x="750.714844"/>
     <use xlink:href="#DejaVuSans-Bold-20" x="794.220703"/>
     <use xlink:href="#DejaVuSans-Bold-47" x="829.035156"/>
     <use xlink:href="#DejaVuSans-Bold-48" x="911.115234"/>
     <use xlink:href="#DejaVuSans-Bold-47" x="994.806641"/>
     <use xlink:href="#DejaVuSans-Bold-20" x="1076.886719"/>
     <use xlink:href="#DejaVuSans-Bold-43" x="1111.701172"/>
     <use xlink:href="#DejaVuSans-Bold-4f" x="1185.089844"/>
     <use xlink:href="#DejaVuSans-Bold-32" x="1270.099609"/>
     <use xlink:href="#DejaVuSans-Bold-20" x="1339.679688"/>
     <use xlink:href="#DejaVuSans-Bold-45" x="1374.494141"/>
     <use xlink:href="#DejaVuSans-Bold-71" x="1442.804688"/>
     <use xlink:href="#DejaVuSans-Bold-75" x="1514.386719"/>
     <use xlink:href="#DejaVuSans-Bold-69" x="1585.578125"/>
     <use xlink:href="#DejaVuSans-Bold-76" x="1619.855469"/>
     <use xlink:href="#DejaVuSans-Bold-61" x="1685.041016"/>
     <use xlink:href="#DejaVuSans-Bold-6c" x="1752.521484"/>
     <use xlink:href="#DejaVuSans-Bold-65" x="1786.798828"/>
     <use xlink:href="#DejaVuSans-Bold-6e" x="1854.621094"/>
     <use xlink:href="#DejaVuSans-Bold-74" x="1925.8125"/>
     <use xlink:href="#DejaVuSans-Bold-20" x="1973.615234"/>
     <use xlink:href="#DejaVuSans-Bold-70" x="2008.429688"/>
     <use xlink:href="#DejaVuSans-Bold-65" x="2080.011719"/>
     <use xlink:href="#DejaVuSans-Bold-72" x="2147.833984"/>
     <use xlink:href="#DejaVuSans-Bold-20" x="2197.150391"/>
     <use xlink:href="#DejaVuSans-Bold-43" x="2231.964844"/>
     <use xlink:href="#DejaVuSans-Bold-61" x="2305.353516"/>
     <use xlink:href="#DejaVuSans-Bold-70" x="2372.833984"/>
     <use xlink:href="#DejaVuSans-Bold-69" x="2444.416016"/>
     <use xlink:href="#DejaVuSans-Bold-74" x="2478.693359"/>
     <use xlink:href="#DejaVuSans-Bold-61" x="2526.496094"/>
     <use xlink:href="#DejaVuSans-Bold-20" x="2593.976562"/>
     <use xlink:href="#DejaVuSans-Bold-4f" x="2628.791016"/>
     <use xlink:href="#DejaVuSans-Bold-76" x="2713.800781"/>
     <use xlink:href="#DejaVuSans-Bold-65" x="2778.986328"/>
     <use xlink:href="#DejaVuSans-Bold-72" x="2846.808594"/>
     <use xlink:href="#DejaVuSans-Bold-20" x="2896.125"/>
     <use xlink:href="#DejaVuSans-Bold-54" x="2930.939453"/>
     <use xlink:href="#DejaVuSans-Bold-69" x="2999.152344"/>
     <use xlink:href="#DejaVuSans-Bold-6d" x="3033.429688"/>
     <use xlink:href="#DejaVuSans-Bold-65" x="3137.628906"/>
    </g>
   </g>
   <g id="legend_1">
    <g id="patch_7">
     <path d="M 573.360937 314.7325 
L 770.6 314.7325 
Q 772.6 314.7325 772.6 312.7325 
L 772.6 196.3075 
Q 772.6 194.3075 770.6 194.3075 
L 573.360937 194.3075 
Q 571.360937 194.3075 571.360937 196.3075 
L 571.360937 312.7325 
Q 571.360937 314.7325 573.360937 314.7325 
z
" style="fill: #ffffff; opacity: 0.8; stroke: #cccccc; stroke-linejoin: miter"/>
    </g>
    <g id="text_16">
     <!-- Continents -->
     <g style="fill: #262626" transform="translate(644.932812 205.905938) scale(0.1 -0.1)">
      <defs>
       <path id="DejaVuSans-43" d="M 4122 4306 
L 4122 3641 
Q 3803 3938 3442 4084 
Q 3081 4231 2675 4231 
Q 1875 4231 1450 3742 
Q 1025 3253 1025 2328 
Q 1025 1406 1450 917 
Q 1875 428 2675 428 
Q 3081 428 3442 575 
Q 3803 722 4122 1019 
L 4122 359 
Q 3791 134 3420 21 
Q 3050 -91 2638 -91 
Q 1578 -91 968 557 
Q 359 1206 359 2328 
Q 359 3453 968 4101 
Q 1578 4750 2638 4750 
Q 3056 4750 3426 4639 
Q 3797 4528 4122 4306 
z
" transform="scale(0.015625)"/>
       <path id="DejaVuSans-6f" d="M 1959 3097 
Q 1497 3097 1228 2736 
Q 959 2375 959 1747 
Q 959 1119 1226 758 
Q 1494 397 1959 397 
Q 2419 397 2687 759 
Q 2956 1122 2956 1747 
Q 2956 2369 2687 2733 
Q 2419 3097 1959 3097 
z
M 1959 3584 
Q 2709 3584 3137 3096 
Q 3566 2609 3566 1747 
Q 3566 888 3137 398 
Q 2709 -91 1959 -91 
Q 1206 -91 779 398 
Q 353 888 353 1747 
Q 353 2609 779 3096 
Q 1206 3584 1959 3584 
z
" transform="scale(0.015625)"/>
       <path id="DejaVuSans-6e" d="M 3513 2113 
L 3513 0 
L 2938 0 
L 2938 2094 
Q 2938 2591 2744 2837 
Q 2550 3084 2163 3084 
Q 1697 3084 1428 2787 
Q 1159 2491 1159 1978 
L 1159 0 
L 581 0 
L 581 3500 
L 1159 3500 
L 1159 2956 
Q 1366 3272 1645 3428 
Q 1925 3584 2291 3584 
Q 2894 3584 3203 3211 
Q 3513 2838 3513 2113 
z
" transform="scale(0.015625)"/>
       <path id="DejaVuSans-74" d="M 1172 4494 
L 1172 3500 
L 2356 3500 
L 2356 3053 
L 1172 3053 
L 1172 1153 
Q 1172 725 1289 603 
Q 1406 481 1766 481 
L 2356 481 
L 2356 0 
L 1766 0 
Q 1100 0 847 248 
Q 594 497 594 1153 
L 594 3053 
L 172 3053 
L 172 3500 
L 594 3500 
L 594 4494 
L 1172 4494 
z
" transform="scale(0.015625)"/>
       <path id="DejaVuSans-69" d="M 603 3500 
L 1178 3500 
L 1178 0 
L 603 0 
L 603 3500 
z
M 603 4863 
L 1178 4863 
L 1178 4134 
L 603 4134 
L 603 4863 
z
" transform="scale(0.015625)"/>
       <path id="DejaVuSans-65" d="M 3597 1894 
L 3597 1613 
L 953 1613 
Q 991 1019 1311 708 
Q 1631 397 2203 397 
Q 2534 397 2845 478 
Q 3156 559 3463 722 
L 3463 178 
Q 3153 47 2828 -22 
Q 2503 -91 2169 -91 
Q 1331 -91 842 396 
Q 353 884 353 1716 
Q 353 2575 817 3079 
Q 1281 3584 2069 3584 
Q 2775 3584 3186 3129 
Q 3597 2675 3597 1894 
z
M 3022 2063 
Q 3016 2534 2758 2815 
Q 2500 3097 2075 3097 
Q 1594 3097 1305 2825 
Q 1016 2553 972 2059 
L 3022 2063 
z
" transform="scale(0.015625)"/>
       <path id="DejaVuSans-73" d="M 2834 3397 
L 2834 2853 
Q 2591 2978 2328 3040 
Q 2066 3103 1784 3103 
Q 1356 3103 1142 2972 
Q 928 2841 928 2578 
Q 928 2378 1081 2264 
Q 1234 2150 1697 2047 
L 1894 2003 
Q 2506 1872 2764 1633 
Q 3022 1394 3022 966 
Q 3022 478 2636 193 
Q 2250 -91 1575 -91 
Q 1294 -91 989 -36 
Q 684 19 347 128 
L 347 722 
Q 666 556 975 473 
Q 1284 391 1588 391 
Q 1994 391 2212 530 
Q 2431 669 2431 922 
Q 2431 1156 2273 1281 
Q 2116 1406 1581 1522 
L 1381 1569 
Q 847 1681 609 1914 
Q 372 2147 372 2553 
Q 372 3047 722 3315 
Q 1072 3584 1716 3584 
Q 2034 3584 2315 3537 
Q 2597 3491 2834 3397 
z
" transform="scale(0.015625)"/>
      </defs>
      <use xlink:href="#DejaVuSans-43"/>
      <use xlink:href="#DejaVuSans-6f" x="69.824219"/>
      <use xlink:href="#DejaVuSans-6e" x="131.005859"/>
      <use xlink:href="#DejaVuSans-74" x="194.384766"/>
      <use xlink:href="#DejaVuSans-69" x="233.59375"/>
      <use xlink:href="#DejaVuSans-6e" x="261.376953"/>
      <use xlink:href="#DejaVuSans-65" x="324.755859"/>
      <use xlink:href="#DejaVuSans-6e" x="386.279297"/>
      <use xlink:href="#DejaVuSans-74" x="449.658203"/>
      <use xlink:href="#DejaVuSans-73" x="488.867188"/>
     </g>
    </g>
    <g id="line2d_20">
     <path d="M 575.360937 217.084063 
L 585.360937 217.084063 
L 595.360937 217.084063 
" style="fill: none; stroke-dasharray: 7.4,3.2; stroke-dashoffset: 0; stroke: #006ba4; stroke-width: 2"/>
    </g>
    <g id="text_17">
     <!-- World -->
     <g style="fill: #262626" transform="translate(603.360937 220.584063) scale(0.1 -0.1)">
      <defs>
       <path id="DejaVuSans-57" d="M 213 4666 
L 850 4666 
L 1831 722 
L 2809 4666 
L 3519 4666 
L 4500 722 
L 5478 4666 
L 6119 4666 
L 4947 0 
L 4153 0 
L 3169 4050 
L 2175 0 
L 1381 0 
L 213 4666 
z
" transform="scale(0.015625)"/>
       <path id="DejaVuSans-72" d="M 2631 2963 
Q 2534 3019 2420 3045 
Q 2306 3072 2169 3072 
Q 1681 3072 1420 2755 
Q 1159 2438 1159 1844 
L 1159 0 
L 581 0 
L 581 3500 
L 1159 3500 
L 1159 2956 
Q 1341 3275 1631 3429 
Q 1922 3584 2338 3584 
Q 2397 3584 2469 3576 
Q 2541 3569 2628 3553 
L 2631 2963 
z
" transform="scale(0.015625)"/>
       <path id="DejaVuSans-6c" d="M 603 4863 
L 1178 4863 
L 1178 0 
L 603 0 
L 603 4863 
z
" transform="scale(0.015625)"/>
       <path id="DejaVuSans-64" d="M 2906 2969 
L 2906 4863 
L 3481 4863 
L 3481 0 
L 2906 0 
L 2906 525 
Q 2725 213 2448 61 
Q 2172 -91 1784 -91 
Q 1150 -91 751 415 
Q 353 922 353 1747 
Q 353 2572 751 3078 
Q 1150 3584 1784 3584 
Q 2172 3584 2448 3432 
Q 2725 3281 2906 2969 
z
M 947 1747 
Q 947 1113 1208 752 
Q 1469 391 1925 391 
Q 2381 391 2643 752 
Q 2906 1113 2906 1747 
Q 2906 2381 2643 2742 
Q 2381 3103 1925 3103 
Q 1469 3103 1208 2742 
Q 947 2381 947 1747 
z
" transform="scale(0.015625)"/>
      </defs>
      <use xlink:href="#DejaVuSans-57"/>
      <use xlink:href="#DejaVuSans-6f" x="93.001953"/>
      <use xlink:href="#DejaVuSans-72" x="154.183594"/>
      <use xlink:href="#DejaVuSans-6c" x="195.296875"/>
      <use xlink:href="#DejaVuSans-64" x="223.080078"/>
     </g>
    </g>
    <g id="line2d_21">
     <path d="M 575.360937 231.762188 
L 585.360937 231.762188 
L 595.360937 231.762188 
" style="fill: none; stroke: #ff800e; stroke-width: 2; stroke-linecap: round"/>
    </g>
    <g id="text_18">
     <!-- Europe -->
     <g style="fill: #262626" transform="translate(603.360937 235.262188) scale(0.1 -0.1)">
      <defs>
       <path id="DejaVuSans-45" d="M 628 4666 
L 3578 4666 
L 3578 4134 
L 1259 4134 
L 1259 2753 
L 3481 2753 
L 3481 2222 
L 1259 2222 
L 1259 531 
L 3634 531 
L 3634 0 
L 628 0 
L 628 4666 
z
" transform="scale(0.015625)"/>
       <path id="DejaVuSans-75" d="M 544 1381 
L 544 3500 
L 1119 3500 
L 1119 1403 
Q 1119 906 1312 657 
Q 1506 409 1894 409 
Q 2359 409 2629 706 
Q 2900 1003 2900 1516 
L 2900 3500 
L 3475 3500 
L 3475 0 
L 2900 0 
L 2900 538 
Q 2691 219 2414 64 
Q 2138 -91 1772 -91 
Q 1169 -91 856 284 
Q 544 659 544 1381 
z
M 1991 3584 
L 1991 3584 
z
" transform="scale(0.015625)"/>
       <path id="DejaVuSans-70" d="M 1159 525 
L 1159 -1331 
L 581 -1331 
L 581 3500 
L 1159 3500 
L 1159 2969 
Q 1341 3281 1617 3432 
Q 1894 3584 2278 3584 
Q 2916 3584 3314 3078 
Q 3713 2572 3713 1747 
Q 3713 922 3314 415 
Q 2916 -91 2278 -91 
Q 1894 -91 1617 61 
Q 1341 213 1159 525 
z
M 3116 1747 
Q 3116 2381 2855 2742 
Q 2594 3103 2138 3103 
Q 1681 3103 1420 2742 
Q 1159 2381 1159 1747 
Q 1159 1113 1420 752 
Q 1681 391 2138 391 
Q 2594 391 2855 752 
Q 3116 1113 3116 1747 
z
" transform="scale(0.015625)"/>
      </defs>
      <use xlink:href="#DejaVuSans-45"/>
      <use xlink:href="#DejaVuSans-75" x="63.183594"/>
      <use xlink:href="#DejaVuSans-72" x="126.5625"/>
      <use xlink:href="#DejaVuSans-6f" x="165.425781"/>
      <use xlink:href="#DejaVuSans-70" x="226.607422"/>
      <use xlink:href="#DejaVuSans-65" x="290.083984"/>
     </g>
    </g>
    <g id="line2d_22">
     <path d="M 575.360937 246.440313 
L 585.360937 246.440313 
L 595.360937 246.440313 
" style="fill: none; stroke: #ababab; stroke-width: 2; stroke-linecap: round"/>
    </g>
    <g id="text_19">
     <!-- Northern America -->
     <g style="fill: #262626" transform="translate(603.360937 249.940313) scale(0.1 -0.1)">
      <defs>
       <path id="DejaVuSans-4e" d="M 628 4666 
L 1478 4666 
L 3547 763 
L 3547 4666 
L 4159 4666 
L 4159 0 
L 3309 0 
L 1241 3903 
L 1241 0 
L 628 0 
L 628 4666 
z
" transform="scale(0.015625)"/>
       <path id="DejaVuSans-68" d="M 3513 2113 
L 3513 0 
L 2938 0 
L 2938 2094 
Q 2938 2591 2744 2837 
Q 2550 3084 2163 3084 
Q 1697 3084 1428 2787 
Q 1159 2491 1159 1978 
L 1159 0 
L 581 0 
L 581 4863 
L 1159 4863 
L 1159 2956 
Q 1366 3272 1645 3428 
Q 1925 3584 2291 3584 
Q 2894 3584 3203 3211 
Q 3513 2838 3513 2113 
z
" transform="scale(0.015625)"/>
       <path id="DejaVuSans-20" transform="scale(0.015625)"/>
       <path id="DejaVuSans-41" d="M 2188 4044 
L 1331 1722 
L 3047 1722 
L 2188 4044 
z
M 1831 4666 
L 2547 4666 
L 4325 0 
L 3669 0 
L 3244 1197 
L 1141 1197 
L 716 0 
L 50 0 
L 1831 4666 
z
" transform="scale(0.015625)"/>
       <path id="DejaVuSans-6d" d="M 3328 2828 
Q 3544 3216 3844 3400 
Q 4144 3584 4550 3584 
Q 5097 3584 5394 3201 
Q 5691 2819 5691 2113 
L 5691 0 
L 5113 0 
L 5113 2094 
Q 5113 2597 4934 2840 
Q 4756 3084 4391 3084 
Q 3944 3084 3684 2787 
Q 3425 2491 3425 1978 
L 3425 0 
L 2847 0 
L 2847 2094 
Q 2847 2600 2669 2842 
Q 2491 3084 2119 3084 
Q 1678 3084 1418 2786 
Q 1159 2488 1159 1978 
L 1159 0 
L 581 0 
L 581 3500 
L 1159 3500 
L 1159 2956 
Q 1356 3278 1631 3431 
Q 1906 3584 2284 3584 
Q 2666 3584 2933 3390 
Q 3200 3197 3328 2828 
z
" transform="scale(0.015625)"/>
       <path id="DejaVuSans-63" d="M 3122 3366 
L 3122 2828 
Q 2878 2963 2633 3030 
Q 2388 3097 2138 3097 
Q 1578 3097 1268 2742 
Q 959 2388 959 1747 
Q 959 1106 1268 751 
Q 1578 397 2138 397 
Q 2388 397 2633 464 
Q 2878 531 3122 666 
L 3122 134 
Q 2881 22 2623 -34 
Q 2366 -91 2075 -91 
Q 1284 -91 818 406 
Q 353 903 353 1747 
Q 353 2603 823 3093 
Q 1294 3584 2113 3584 
Q 2378 3584 2631 3529 
Q 2884 3475 3122 3366 
z
" transform="scale(0.015625)"/>
       <path id="DejaVuSans-61" d="M 2194 1759 
Q 1497 1759 1228 1600 
Q 959 1441 959 1056 
Q 959 750 1161 570 
Q 1363 391 1709 391 
Q 2188 391 2477 730 
Q 2766 1069 2766 1631 
L 2766 1759 
L 2194 1759 
z
M 3341 1997 
L 3341 0 
L 2766 0 
L 2766 531 
Q 2569 213 2275 61 
Q 1981 -91 1556 -91 
Q 1019 -91 701 211 
Q 384 513 384 1019 
Q 384 1609 779 1909 
Q 1175 2209 1959 2209 
L 2766 2209 
L 2766 2266 
Q 2766 2663 2505 2880 
Q 2244 3097 1772 3097 
Q 1472 3097 1187 3025 
Q 903 2953 641 2809 
L 641 3341 
Q 956 3463 1253 3523 
Q 1550 3584 1831 3584 
Q 2591 3584 2966 3190 
Q 3341 2797 3341 1997 
z
" transform="scale(0.015625)"/>
      </defs>
      <use xlink:href="#DejaVuSans-4e"/>
      <use xlink:href="#DejaVuSans-6f" x="74.804688"/>
      <use xlink:href="#DejaVuSans-72" x="135.986328"/>
      <use xlink:href="#DejaVuSans-74" x="177.099609"/>
      <use xlink:href="#DejaVuSans-68" x="216.308594"/>
      <use xlink:href="#DejaVuSans-65" x="279.6875"/>
      <use xlink:href="#DejaVuSans-72" x="341.210938"/>
      <use xlink:href="#DejaVuSans-6e" x="380.574219"/>
      <use xlink:href="#DejaVuSans-20" x="443.953125"/>
      <use xlink:href="#DejaVuSans-41" x="475.740234"/>
      <use xlink:href="#DejaVuSans-6d" x="544.148438"/>
      <use xlink:href="#DejaVuSans-65" x="641.560547"/>
      <use xlink:href="#DejaVuSans-72" x="703.083984"/>
      <use xlink:href="#DejaVuSans-69" x="744.197266"/>
      <use xlink:href="#DejaVuSans-63" x="771.980469"/>
      <use xlink:href="#DejaVuSans-61" x="826.960938"/>
     </g>
    </g>
    <g id="line2d_23">
     <path d="M 575.360937 261.118438 
L 585.360937 261.118438 
L 595.360937 261.118438 
" style="fill: none; stroke: #595959; stroke-width: 2; stroke-linecap: round"/>
    </g>
    <g id="text_20">
     <!-- Asia -->
     <g style="fill: #262626" transform="translate(603.360937 264.618438) scale(0.1 -0.1)">
      <use xlink:href="#DejaVuSans-41"/>
      <use xlink:href="#DejaVuSans-73" x="68.408203"/>
      <use xlink:href="#DejaVuSans-69" x="120.507812"/>
      <use xlink:href="#DejaVuSans-61" x="148.291016"/>
     </g>
    </g>
    <g id="line2d_24">
     <path d="M 575.360937 275.796563 
L 585.360937 275.796563 
L 595.360937 275.796563 
" style="fill: none; stroke: #5f9ed1; stroke-width: 2; stroke-linecap: round"/>
    </g>
    <g id="text_21">
     <!-- Australia and New Zealand -->
     <g style="fill: #262626" transform="translate(603.360937 279.296563) scale(0.1 -0.1)">
      <defs>
       <path id="DejaVuSans-77" d="M 269 3500 
L 844 3500 
L 1563 769 
L 2278 3500 
L 2956 3500 
L 3675 769 
L 4391 3500 
L 4966 3500 
L 4050 0 
L 3372 0 
L 2619 2869 
L 1863 0 
L 1184 0 
L 269 3500 
z
" transform="scale(0.015625)"/>
       <path id="DejaVuSans-5a" d="M 359 4666 
L 4025 4666 
L 4025 4184 
L 1075 531 
L 4097 531 
L 4097 0 
L 288 0 
L 288 481 
L 3238 4134 
L 359 4134 
L 359 4666 
z
" transform="scale(0.015625)"/>
      </defs>
      <use xlink:href="#DejaVuSans-41"/>
      <use xlink:href="#DejaVuSans-75" x="68.408203"/>
      <use xlink:href="#DejaVuSans-73" x="131.787109"/>
      <use xlink:href="#DejaVuSans-74" x="183.886719"/>
      <use xlink:href="#DejaVuSans-72" x="223.095703"/>
      <use xlink:href="#DejaVuSans-61" x="264.208984"/>
      <use xlink:href="#DejaVuSans-6c" x="325.488281"/>
      <use xlink:href="#DejaVuSans-69" x="353.271484"/>
      <use xlink:href="#DejaVuSans-61" x="381.054688"/>
      <use xlink:href="#DejaVuSans-20" x="442.333984"/>
      <use xlink:href="#DejaVuSans-61" x="474.121094"/>
      <use xlink:href="#DejaVuSans-6e" x="535.400391"/>
      <use xlink:href="#DejaVuSans-64" x="598.779297"/>
      <use xlink:href="#DejaVuSans-20" x="662.255859"/>
      <use xlink:href="#DejaVuSans-4e" x="694.042969"/>
      <use xlink:href="#DejaVuSans-65" x="768.847656"/>
      <use xlink:href="#DejaVuSans-77" x="830.371094"/>
      <use xlink:href="#DejaVuSans-20" x="912.158203"/>
      <use xlink:href="#DejaVuSans-5a" x="943.945312"/>
      <use xlink:href="#DejaVuSans-65" x="1012.451172"/>
      <use xlink:href="#DejaVuSans-61" x="1073.974609"/>
      <use xlink:href="#DejaVuSans-6c" x="1135.253906"/>
      <use xlink:href="#DejaVuSans-61" x="1163.037109"/>
      <use xlink:href="#DejaVuSans-6e" x="1224.316406"/>
      <use xlink:href="#DejaVuSans-64" x="1287.695312"/>
     </g>
    </g>
    <g id="line2d_25">
     <path d="M 575.360937 290.474688 
L 585.360937 290.474688 
L 595.360937 290.474688 
" style="fill: none; stroke: #c85200; stroke-width: 2; stroke-linecap: round"/>
    </g>
    <g id="text_22">
     <!-- Africa -->
     <g style="fill: #262626" transform="translate(603.360937 293.974688) scale(0.1 -0.1)">
      <defs>
       <path id="DejaVuSans-66" d="M 2375 4863 
L 2375 4384 
L 1825 4384 
Q 1516 4384 1395 4259 
Q 1275 4134 1275 3809 
L 1275 3500 
L 2222 3500 
L 2222 3053 
L 1275 3053 
L 1275 0 
L 697 0 
L 697 3053 
L 147 3053 
L 147 3500 
L 697 3500 
L 697 3744 
Q 697 4328 969 4595 
Q 1241 4863 1831 4863 
L 2375 4863 
z
" transform="scale(0.015625)"/>
      </defs>
      <use xlink:href="#DejaVuSans-41"/>
      <use xlink:href="#DejaVuSans-66" x="64.783203"/>
      <use xlink:href="#DejaVuSans-72" x="99.988281"/>
      <use xlink:href="#DejaVuSans-69" x="141.101562"/>
      <use xlink:href="#DejaVuSans-63" x="168.884766"/>
      <use xlink:href="#DejaVuSans-61" x="223.865234"/>
     </g>
    </g>
    <g id="line2d_26">
     <path d="M 575.360937 305.152813 
L 585.360937 305.152813 
L 595.360937 305.152813 
" style="fill: none; stroke: #898989; stroke-width: 2; stroke-linecap: round"/>
    </g>
    <g id="text_23">
     <!-- Latin America and the Caribbean -->
     <g style="fill: #262626" transform="translate(603.360937 308.652813) scale(0.1 -0.1)">
      <defs>
       <path id="DejaVuSans-4c" d="M 628 4666 
L 1259 4666 
L 1259 531 
L 3531 531 
L 3531 0 
L 628 0 
L 628 4666 
z
" transform="scale(0.015625)"/>
       <path id="DejaVuSans-62" d="M 3116 1747 
Q 3116 2381 2855 2742 
Q 2594 3103 2138 3103 
Q 1681 3103 1420 2742 
Q 1159 2381 1159 1747 
Q 1159 1113 1420 752 
Q 1681 391 2138 391 
Q 2594 391 2855 752 
Q 3116 1113 3116 1747 
z
M 1159 2969 
Q 1341 3281 1617 3432 
Q 1894 3584 2278 3584 
Q 2916 3584 3314 3078 
Q 3713 2572 3713 1747 
Q 3713 922 3314 415 
Q 2916 -91 2278 -91 
Q 1894 -91 1617 61 
Q 1341 213 1159 525 
L 1159 0 
L 581 0 
L 581 4863 
L 1159 4863 
L 1159 2969 
z
" transform="scale(0.015625)"/>
      </defs>
      <use xlink:href="#DejaVuSans-4c"/>
      <use xlink:href="#DejaVuSans-61" x="55.712891"/>
      <use xlink:href="#DejaVuSans-74" x="116.992188"/>
      <use xlink:href="#DejaVuSans-69" x="156.201172"/>
      <use xlink:href="#DejaVuSans-6e" x="183.984375"/>
      <use xlink:href="#DejaVuSans-20" x="247.363281"/>
      <use xlink:href="#DejaVuSans-41" x="279.150391"/>
      <use xlink:href="#DejaVuSans-6d" x="347.558594"/>
      <use xlink:href="#DejaVuSans-65" x="444.970703"/>
      <use xlink:href="#DejaVuSans-72" x="506.494141"/>
      <use xlink:href="#DejaVuSans-69" x="547.607422"/>
      <use xlink:href="#DejaVuSans-63" x="575.390625"/>
      <use xlink:href="#DejaVuSans-61" x="630.371094"/>
      <use xlink:href="#DejaVuSans-20" x="691.650391"/>
      <use xlink:href="#DejaVuSans-61" x="723.4375"/>
      <use xlink:href="#DejaVuSans-6e" x="784.716797"/>
      <use xlink:href="#DejaVuSans-64" x="848.095703"/>
      <use xlink:href="#DejaVuSans-20" x="911.572266"/>
      <use xlink:href="#DejaVuSans-74" x="943.359375"/>
      <use xlink:href="#DejaVuSans-68" x="982.568359"/>
      <use xlink:href="#DejaVuSans-65" x="1045.947266"/>
      <use xlink:href="#DejaVuSans-20" x="1107.470703"/>
      <use xlink:href="#DejaVuSans-43" x="1139.257812"/>
      <use xlink:href="#DejaVuSans-61" x="1209.082031"/>
      <use xlink:href="#DejaVuSans-72" x="1270.361328"/>
      <use xlink:href="#DejaVuSans-69" x="1311.474609"/>
      <use xlink:href="#DejaVuSans-62" x="1339.257812"/>
      <use xlink:href="#DejaVuSans-62" x="1402.734375"/>
      <use xlink:href="#DejaVuSans-65" x="1466.210938"/>
      <use xlink:href="#DejaVuSans-61" x="1527.734375"/>
      <use xlink:href="#DejaVuSans-6e" x="1589.013672"/>
     </g>
    </g>
   </g>
  </g>
 </g>
 <defs>
  <clipPath id="p0f895b4172">
   <rect x="108" y="60.48" width="669.6" height="388.08"/>
  </clipPath>
 </defs>
</svg>
